<svg xmlns="http://www.w3.org/2000/svg" xmlns:xlink="http://www.w3.org/1999/xlink" version="1.1" class="marks" width="100%" height="100%" ><rect width="100%" height="100%" fill="#232530"/><g fill="none" stroke-miterlimit="10" transform="translate(97,42)"><g class="mark-group role-frame root" role="graphics-object" aria-roledescription="group mark container"><g transform="translate(0,0)"><path class="background" aria-hidden="true" d="M0.5,0.5h652v293h-652Z" stroke="#bbbbbb"/><g><g class="mark-group role-axis" aria-hidden="true"><g transform="translate(0.5,293.5)"><path class="background" aria-hidden="true" d="M0,0h0v0h0Z" pointer-events="none"/><g><g class="mark-rule role-axis-grid" pointer-events="none"><line transform="translate(0,-293)" x2="0" y2="293" stroke="#bbbbbb" stroke-opacity="0.25" stroke-width="1" opacity="1"/><line transform="translate(28,-293)" x2="0" y2="293" stroke="#bbbbbb" stroke-opacity="0.25" stroke-width="1" opacity="1"/><line transform="translate(44,-293)" x2="0" y2="293" stroke="#bbbbbb" stroke-opacity="0.25" stroke-width="1" opacity="1"/><line transform="translate(56,-293)" x2="0" y2="293" stroke="#bbbbbb" stroke-opacity="0.25" stroke-width="1" opacity="1"/><line transform="translate(65,-293)" x2="0" y2="293" stroke="#bbbbbb" stroke-opacity="0.25" stroke-width="1" opacity="1"/><line transform="translate(72,-293)" x2="0" y2="293" stroke="#bbbbbb" stroke-opacity="0.25" stroke-width="1" opacity="1"/><line transform="translate(79,-293)" x2="0" y2="293" stroke="#bbbbbb" stroke-opacity="0.25" stroke-width="1" opacity="1"/><line transform="translate(84,-293)" x2="0" y2="293" stroke="#bbbbbb" stroke-opacity="0.25" stroke-width="1" opacity="1"/><line transform="translate(89,-293)" x2="0" y2="293" stroke="#bbbbbb" stroke-opacity="0.25" stroke-width="1" opacity="1"/><line transform="translate(93,-293)" x2="0" y2="293" stroke="#bbbbbb" stroke-opacity="0.25" stroke-width="1" opacity="1"/><line transform="translate(121,-293)" x2="0" y2="293" stroke="#bbbbbb" stroke-opacity="0.25" stroke-width="1" opacity="1"/><line transform="translate(138,-293)" x2="0" y2="293" stroke="#bbbbbb" stroke-opacity="0.25" stroke-width="1" opacity="1"/><line transform="translate(149,-293)" x2="0" y2="293" stroke="#bbbbbb" stroke-opacity="0.25" stroke-width="1" opacity="1"/><line transform="translate(158,-293)" x2="0" y2="293" stroke="#bbbbbb" stroke-opacity="0.25" stroke-width="1" opacity="1"/><line transform="translate(166,-293)" x2="0" y2="293" stroke="#bbbbbb" stroke-opacity="0.25" stroke-width="1" opacity="1"/><line transform="translate(172,-293)" x2="0" y2="293" stroke="#bbbbbb" stroke-opacity="0.25" stroke-width="1" opacity="1"/><line transform="translate(177,-293)" x2="0" y2="293" stroke="#bbbbbb" stroke-opacity="0.25" stroke-width="1" opacity="1"/><line transform="translate(182,-293)" x2="0" y2="293" stroke="#bbbbbb" stroke-opacity="0.25" stroke-width="1" opacity="1"/><line transform="translate(186,-293)" x2="0" y2="293" stroke="#bbbbbb" stroke-opacity="0.25" stroke-width="1" opacity="1"/><line transform="translate(214,-293)" x2="0" y2="293" stroke="#bbbbbb" stroke-opacity="0.25" stroke-width="1" opacity="1"/><line transform="translate(231,-293)" x2="0" y2="293" stroke="#bbbbbb" stroke-opacity="0.25" stroke-width="1" opacity="1"/><line transform="translate(242,-293)" x2="0" y2="293" stroke="#bbbbbb" stroke-opacity="0.25" stroke-width="1" opacity="1"/><line transform="translate(251,-293)" x2="0" y2="293" stroke="#bbbbbb" stroke-opacity="0.25" stroke-width="1" opacity="1"/><line transform="translate(259,-293)" x2="0" y2="293" stroke="#bbbbbb" stroke-opacity="0.25" stroke-width="1" opacity="1"/><line transform="translate(265,-293)" x2="0" y2="293" stroke="#bbbbbb" stroke-opacity="0.25" stroke-width="1" opacity="1"/><line transform="translate(270,-293)" x2="0" y2="293" stroke="#bbbbbb" stroke-opacity="0.25" stroke-width="1" opacity="1"/><line transform="translate(275,-293)" x2="0" y2="293" stroke="#bbbbbb" stroke-opacity="0.25" stroke-width="1" opacity="1"/><line transform="translate(279,-293)" x2="0" y2="293" stroke="#bbbbbb" stroke-opacity="0.25" stroke-width="1" opacity="1"/><line transform="translate(307,-293)" x2="0" y2="293" stroke="#bbbbbb" stroke-opacity="0.25" stroke-width="1" opacity="1"/><line transform="translate(324,-293)" x2="0" y2="293" stroke="#bbbbbb" stroke-opacity="0.25" stroke-width="1" opacity="1"/><line transform="translate(336,-293)" x2="0" y2="293" stroke="#bbbbbb" stroke-opacity="0.25" stroke-width="1" opacity="1"/><line transform="translate(345,-293)" x2="0" y2="293" stroke="#bbbbbb" stroke-opacity="0.25" stroke-width="1" opacity="1"/><line transform="translate(352,-293)" x2="0" y2="293" stroke="#bbbbbb" stroke-opacity="0.25" stroke-width="1" opacity="1"/><line transform="translate(358,-293)" x2="0" y2="293" stroke="#bbbbbb" stroke-opacity="0.25" stroke-width="1" opacity="1"/><line transform="translate(364,-293)" x2="0" y2="293" stroke="#bbbbbb" stroke-opacity="0.25" stroke-width="1" opacity="1"/><line transform="translate(368,-293)" x2="0" y2="293" stroke="#bbbbbb" stroke-opacity="0.25" stroke-width="1" opacity="1"/><line transform="translate(373,-293)" x2="0" y2="293" stroke="#bbbbbb" stroke-opacity="0.25" stroke-width="1" opacity="1"/><line transform="translate(401,-293)" x2="0" y2="293" stroke="#bbbbbb" stroke-opacity="0.25" stroke-width="1" opacity="1"/><line transform="translate(417,-293)" x2="0" y2="293" stroke="#bbbbbb" stroke-opacity="0.25" stroke-width="1" opacity="1"/><line transform="translate(429,-293)" x2="0" y2="293" stroke="#bbbbbb" stroke-opacity="0.25" stroke-width="1" opacity="1"/><line transform="translate(438,-293)" x2="0" y2="293" stroke="#bbbbbb" stroke-opacity="0.25" stroke-width="1" opacity="1"/><line transform="translate(445,-293)" x2="0" y2="293" stroke="#bbbbbb" stroke-opacity="0.25" stroke-width="1" opacity="1"/><line transform="translate(451,-293)" x2="0" y2="293" stroke="#bbbbbb" stroke-opacity="0.25" stroke-width="1" opacity="1"/><line transform="translate(457,-293)" x2="0" y2="293" stroke="#bbbbbb" stroke-opacity="0.25" stroke-width="1" opacity="1"/><line transform="translate(461,-293)" x2="0" y2="293" stroke="#bbbbbb" stroke-opacity="0.25" stroke-width="1" opacity="1"/><line transform="translate(466,-293)" x2="0" y2="293" stroke="#bbbbbb" stroke-opacity="0.25" stroke-width="1" opacity="1"/><line transform="translate(494,-293)" x2="0" y2="293" stroke="#bbbbbb" stroke-opacity="0.25" stroke-width="1" opacity="1"/><line transform="translate(510,-293)" x2="0" y2="293" stroke="#bbbbbb" stroke-opacity="0.25" stroke-width="1" opacity="1"/><line transform="translate(522,-293)" x2="0" y2="293" stroke="#bbbbbb" stroke-opacity="0.25" stroke-width="1" opacity="1"/><line transform="translate(531,-293)" x2="0" y2="293" stroke="#bbbbbb" stroke-opacity="0.25" stroke-width="1" opacity="1"/><line transform="translate(538,-293)" x2="0" y2="293" stroke="#bbbbbb" stroke-opacity="0.25" stroke-width="1" opacity="1"/><line transform="translate(544,-293)" x2="0" y2="293" stroke="#bbbbbb" stroke-opacity="0.25" stroke-width="1" opacity="1"/><line transform="translate(550,-293)" x2="0" y2="293" stroke="#bbbbbb" stroke-opacity="0.25" stroke-width="1" opacity="1"/><line transform="translate(555,-293)" x2="0" y2="293" stroke="#bbbbbb" stroke-opacity="0.25" stroke-width="1" opacity="1"/><line transform="translate(559,-293)" x2="0" y2="293" stroke="#bbbbbb" stroke-opacity="0.25" stroke-width="1" opacity="1"/><line transform="translate(587,-293)" x2="0" y2="293" stroke="#bbbbbb" stroke-opacity="0.25" stroke-width="1" opacity="1"/><line transform="translate(603,-293)" x2="0" y2="293" stroke="#bbbbbb" stroke-opacity="0.25" stroke-width="1" opacity="1"/><line transform="translate(615,-293)" x2="0" y2="293" stroke="#bbbbbb" stroke-opacity="0.25" stroke-width="1" opacity="1"/><line transform="translate(624,-293)" x2="0" y2="293" stroke="#bbbbbb" stroke-opacity="0.25" stroke-width="1" opacity="1"/><line transform="translate(631,-293)" x2="0" y2="293" stroke="#bbbbbb" stroke-opacity="0.25" stroke-width="1" opacity="1"/><line transform="translate(638,-293)" x2="0" y2="293" stroke="#bbbbbb" stroke-opacity="0.25" stroke-width="1" opacity="1"/><line transform="translate(643,-293)" x2="0" y2="293" stroke="#bbbbbb" stroke-opacity="0.25" stroke-width="1" opacity="1"/><line transform="translate(648,-293)" x2="0" y2="293" stroke="#bbbbbb" stroke-opacity="0.25" stroke-width="1" opacity="1"/><line transform="translate(652,-293)" x2="0" y2="293" stroke="#bbbbbb" stroke-opacity="0.25" stroke-width="1" opacity="1"/></g></g><path class="foreground" aria-hidden="true" d="" pointer-events="none" display="none"/></g></g><g class="mark-group role-axis" aria-hidden="true"><g transform="translate(0.5,0.5)"><path class="background" aria-hidden="true" d="M0,0h0v0h0Z" pointer-events="none"/><g><g class="mark-rule role-axis-grid" pointer-events="none"><line transform="translate(0,293)" x2="652" y2="0" stroke="#bbbbbb" stroke-opacity="0.25" stroke-width="1" opacity="1"/><line transform="translate(0,264)" x2="652" y2="0" stroke="#bbbbbb" stroke-opacity="0.25" stroke-width="1" opacity="1"/><line transform="translate(0,234)" x2="652" y2="0" stroke="#bbbbbb" stroke-opacity="0.25" stroke-width="1" opacity="1"/><line transform="translate(0,205)" x2="652" y2="0" stroke="#bbbbbb" stroke-opacity="0.25" stroke-width="1" opacity="1"/><line transform="translate(0,176)" x2="652" y2="0" stroke="#bbbbbb" stroke-opacity="0.25" stroke-width="1" opacity="1"/><line transform="translate(0,147)" x2="652" y2="0" stroke="#bbbbbb" stroke-opacity="0.25" stroke-width="1" opacity="1"/><line transform="translate(0,117)" x2="652" y2="0" stroke="#bbbbbb" stroke-opacity="0.25" stroke-width="1" opacity="1"/><line transform="translate(0,88)" x2="652" y2="0" stroke="#bbbbbb" stroke-opacity="0.25" stroke-width="1" opacity="1"/><line transform="translate(0,59)" x2="652" y2="0" stroke="#bbbbbb" stroke-opacity="0.25" stroke-width="1" opacity="1"/><line transform="translate(0,29)" x2="652" y2="0" stroke="#bbbbbb" stroke-opacity="0.25" stroke-width="1" opacity="1"/><line transform="translate(0,0)" x2="652" y2="0" stroke="#bbbbbb" stroke-opacity="0.25" stroke-width="1" opacity="1"/></g></g><path class="foreground" aria-hidden="true" d="" pointer-events="none" display="none"/></g></g><g class="mark-group role-axis" role="graphics-symbol" aria-roledescription="axis" aria-label="X-axis titled 'lr' for a log scale with values from 0.000001 to 10"><g transform="translate(0.5,293.5)"><path class="background" aria-hidden="true" d="M0,0h0v0h0Z" pointer-events="none"/><g><g class="mark-rule role-axis-tick" pointer-events="none"><line transform="translate(0,0)" x2="0" y2="5" stroke="#bbbbbb" stroke-width="1" opacity="1"/><line transform="translate(28,0)" x2="0" y2="5" stroke="#bbbbbb" stroke-width="1" opacity="1"/><line transform="translate(44,0)" x2="0" y2="5" stroke="#bbbbbb" stroke-width="1" opacity="1"/><line transform="translate(56,0)" x2="0" y2="5" stroke="#bbbbbb" stroke-width="1" opacity="1"/><line transform="translate(65,0)" x2="0" y2="5" stroke="#bbbbbb" stroke-width="1" opacity="1"/><line transform="translate(72,0)" x2="0" y2="5" stroke="#bbbbbb" stroke-width="1" opacity="1"/><line transform="translate(79,0)" x2="0" y2="5" stroke="#bbbbbb" stroke-width="1" opacity="1"/><line transform="translate(84,0)" x2="0" y2="5" stroke="#bbbbbb" stroke-width="1" opacity="1"/><line transform="translate(89,0)" x2="0" y2="5" stroke="#bbbbbb" stroke-width="1" opacity="1"/><line transform="translate(93,0)" x2="0" y2="5" stroke="#bbbbbb" stroke-width="1" opacity="1"/><line transform="translate(121,0)" x2="0" y2="5" stroke="#bbbbbb" stroke-width="1" opacity="1"/><line transform="translate(138,0)" x2="0" y2="5" stroke="#bbbbbb" stroke-width="1" opacity="1"/><line transform="translate(149,0)" x2="0" y2="5" stroke="#bbbbbb" stroke-width="1" opacity="1"/><line transform="translate(158,0)" x2="0" y2="5" stroke="#bbbbbb" stroke-width="1" opacity="1"/><line transform="translate(166,0)" x2="0" y2="5" stroke="#bbbbbb" stroke-width="1" opacity="1"/><line transform="translate(172,0)" x2="0" y2="5" stroke="#bbbbbb" stroke-width="1" opacity="1"/><line transform="translate(177,0)" x2="0" y2="5" stroke="#bbbbbb" stroke-width="1" opacity="1"/><line transform="translate(182,0)" x2="0" y2="5" stroke="#bbbbbb" stroke-width="1" opacity="1"/><line transform="translate(186,0)" x2="0" y2="5" stroke="#bbbbbb" stroke-width="1" opacity="1"/><line transform="translate(214,0)" x2="0" y2="5" stroke="#bbbbbb" stroke-width="1" opacity="1"/><line transform="translate(231,0)" x2="0" y2="5" stroke="#bbbbbb" stroke-width="1" opacity="1"/><line transform="translate(242,0)" x2="0" y2="5" stroke="#bbbbbb" stroke-width="1" opacity="1"/><line transform="translate(251,0)" x2="0" y2="5" stroke="#bbbbbb" stroke-width="1" opacity="1"/><line transform="translate(259,0)" x2="0" y2="5" stroke="#bbbbbb" stroke-width="1" opacity="1"/><line transform="translate(265,0)" x2="0" y2="5" stroke="#bbbbbb" stroke-width="1" opacity="1"/><line transform="translate(270,0)" x2="0" y2="5" stroke="#bbbbbb" stroke-width="1" opacity="1"/><line transform="translate(275,0)" x2="0" y2="5" stroke="#bbbbbb" stroke-width="1" opacity="1"/><line transform="translate(279,0)" x2="0" y2="5" stroke="#bbbbbb" stroke-width="1" opacity="1"/><line transform="translate(307,0)" x2="0" y2="5" stroke="#bbbbbb" stroke-width="1" opacity="1"/><line transform="translate(324,0)" x2="0" y2="5" stroke="#bbbbbb" stroke-width="1" opacity="1"/><line transform="translate(336,0)" x2="0" y2="5" stroke="#bbbbbb" stroke-width="1" opacity="1"/><line transform="translate(345,0)" x2="0" y2="5" stroke="#bbbbbb" stroke-width="1" opacity="1"/><line transform="translate(352,0)" x2="0" y2="5" stroke="#bbbbbb" stroke-width="1" opacity="1"/><line transform="translate(358,0)" x2="0" y2="5" stroke="#bbbbbb" stroke-width="1" opacity="1"/><line transform="translate(364,0)" x2="0" y2="5" stroke="#bbbbbb" stroke-width="1" opacity="1"/><line transform="translate(368,0)" x2="0" y2="5" stroke="#bbbbbb" stroke-width="1" opacity="1"/><line transform="translate(373,0)" x2="0" y2="5" stroke="#bbbbbb" stroke-width="1" opacity="1"/><line transform="translate(401,0)" x2="0" y2="5" stroke="#bbbbbb" stroke-width="1" opacity="1"/><line transform="translate(417,0)" x2="0" y2="5" stroke="#bbbbbb" stroke-width="1" opacity="1"/><line transform="translate(429,0)" x2="0" y2="5" stroke="#bbbbbb" stroke-width="1" opacity="1"/><line transform="translate(438,0)" x2="0" y2="5" stroke="#bbbbbb" stroke-width="1" opacity="1"/><line transform="translate(445,0)" x2="0" y2="5" stroke="#bbbbbb" stroke-width="1" opacity="1"/><line transform="translate(451,0)" x2="0" y2="5" stroke="#bbbbbb" stroke-width="1" opacity="1"/><line transform="translate(457,0)" x2="0" y2="5" stroke="#bbbbbb" stroke-width="1" opacity="1"/><line transform="translate(461,0)" x2="0" y2="5" stroke="#bbbbbb" stroke-width="1" opacity="1"/><line transform="translate(466,0)" x2="0" y2="5" stroke="#bbbbbb" stroke-width="1" opacity="1"/><line transform="translate(494,0)" x2="0" y2="5" stroke="#bbbbbb" stroke-width="1" opacity="1"/><line transform="translate(510,0)" x2="0" y2="5" stroke="#bbbbbb" stroke-width="1" opacity="1"/><line transform="translate(522,0)" x2="0" y2="5" stroke="#bbbbbb" stroke-width="1" opacity="1"/><line transform="translate(531,0)" x2="0" y2="5" stroke="#bbbbbb" stroke-width="1" opacity="1"/><line transform="translate(538,0)" x2="0" y2="5" stroke="#bbbbbb" stroke-width="1" opacity="1"/><line transform="translate(544,0)" x2="0" y2="5" stroke="#bbbbbb" stroke-width="1" opacity="1"/><line transform="translate(550,0)" x2="0" y2="5" stroke="#bbbbbb" stroke-width="1" opacity="1"/><line transform="translate(555,0)" x2="0" y2="5" stroke="#bbbbbb" stroke-width="1" opacity="1"/><line transform="translate(559,0)" x2="0" y2="5" stroke="#bbbbbb" stroke-width="1" opacity="1"/><line transform="translate(587,0)" x2="0" y2="5" stroke="#bbbbbb" stroke-width="1" opacity="1"/><line transform="translate(603,0)" x2="0" y2="5" stroke="#bbbbbb" stroke-width="1" opacity="1"/><line transform="translate(615,0)" x2="0" y2="5" stroke="#bbbbbb" stroke-width="1" opacity="1"/><line transform="translate(624,0)" x2="0" y2="5" stroke="#bbbbbb" stroke-width="1" opacity="1"/><line transform="translate(631,0)" x2="0" y2="5" stroke="#bbbbbb" stroke-width="1" opacity="1"/><line transform="translate(638,0)" x2="0" y2="5" stroke="#bbbbbb" stroke-width="1" opacity="1"/><line transform="translate(643,0)" x2="0" y2="5" stroke="#bbbbbb" stroke-width="1" opacity="1"/><line transform="translate(648,0)" x2="0" y2="5" stroke="#bbbbbb" stroke-width="1" opacity="1"/><line transform="translate(652,0)" x2="0" y2="5" stroke="#bbbbbb" stroke-width="1" opacity="1"/></g><g class="mark-text role-axis-label" pointer-events="none"><text text-anchor="start" transform="translate(0,15)" font-family="'Droid Sans Mono', 'monospace', monospace" font-size="10px" font-weight="normal" fill="#bbbbbb" opacity="1">0.000001</text><text text-anchor="middle" transform="translate(28.03879388184511,15)" font-family="'Droid Sans Mono', 'monospace', monospace" font-size="10px" font-weight="normal" fill="#bbbbbb" opacity="1"/><text text-anchor="middle" transform="translate(44.44043686817425,15)" font-family="'Droid Sans Mono', 'monospace', monospace" font-size="10px" font-weight="normal" fill="#bbbbbb" opacity="1"/><text text-anchor="middle" transform="translate(56.07758776369022,15)" font-family="'Droid Sans Mono', 'monospace', monospace" font-size="10px" font-weight="normal" fill="#bbbbbb" opacity="1"/><text text-anchor="middle" transform="translate(65.104063261012,15)" font-family="'Droid Sans Mono', 'monospace', monospace" font-size="10px" font-weight="normal" fill="#bbbbbb" opacity="1"/><text text-anchor="middle" transform="translate(72.47923075001935,15)" font-family="'Droid Sans Mono', 'monospace', monospace" font-size="10px" font-weight="normal" fill="#bbbbbb" opacity="1"/><text text-anchor="middle" transform="translate(78.7148460127565,15)" font-family="'Droid Sans Mono', 'monospace', monospace" font-size="10px" font-weight="normal" fill="#bbbbbb" opacity="1"/><text text-anchor="middle" transform="translate(84.11638164553533,15)" font-family="'Droid Sans Mono', 'monospace', monospace" font-size="10px" font-weight="normal" fill="#bbbbbb" opacity="1"/><text text-anchor="middle" transform="translate(88.8808737363485,15)" font-family="'Droid Sans Mono', 'monospace', monospace" font-size="10px" font-weight="normal" fill="#bbbbbb" opacity="1"/><text text-anchor="middle" transform="translate(93.14285714285712,15)" font-family="'Droid Sans Mono', 'monospace', monospace" font-size="10px" font-weight="normal" fill="#bbbbbb" opacity="1">0.00001</text><text text-anchor="middle" transform="translate(121.18165102470223,15)" font-family="'Droid Sans Mono', 'monospace', monospace" font-size="10px" font-weight="normal" fill="#bbbbbb" opacity="1"/><text text-anchor="middle" transform="translate(137.58329401103134,15)" font-family="'Droid Sans Mono', 'monospace', monospace" font-size="10px" font-weight="normal" fill="#bbbbbb" opacity="1"/><text text-anchor="middle" transform="translate(149.22044490654733,15)" font-family="'Droid Sans Mono', 'monospace', monospace" font-size="10px" font-weight="normal" fill="#bbbbbb" opacity="1"/><text text-anchor="middle" transform="translate(158.24692040386918,15)" font-family="'Droid Sans Mono', 'monospace', monospace" font-size="10px" font-weight="normal" fill="#bbbbbb" opacity="1"/><text text-anchor="middle" transform="translate(165.6220878928765,15)" font-family="'Droid Sans Mono', 'monospace', monospace" font-size="10px" font-weight="normal" fill="#bbbbbb" opacity="1"/><text text-anchor="middle" transform="translate(171.85770315561362,15)" font-family="'Droid Sans Mono', 'monospace', monospace" font-size="10px" font-weight="normal" fill="#bbbbbb" opacity="1"/><text text-anchor="middle" transform="translate(177.25923878839245,15)" font-family="'Droid Sans Mono', 'monospace', monospace" font-size="10px" font-weight="normal" fill="#bbbbbb" opacity="1"/><text text-anchor="middle" transform="translate(182.0237308792057,15)" font-family="'Droid Sans Mono', 'monospace', monospace" font-size="10px" font-weight="normal" fill="#bbbbbb" opacity="1"/><text text-anchor="middle" transform="translate(186.2857142857143,15)" font-family="'Droid Sans Mono', 'monospace', monospace" font-size="10px" font-weight="normal" fill="#bbbbbb" opacity="1">0.0001</text><text text-anchor="middle" transform="translate(214.32450816755932,15)" font-family="'Droid Sans Mono', 'monospace', monospace" font-size="10px" font-weight="normal" fill="#bbbbbb" opacity="1"/><text text-anchor="middle" transform="translate(230.72615115388854,15)" font-family="'Droid Sans Mono', 'monospace', monospace" font-size="10px" font-weight="normal" fill="#bbbbbb" opacity="1"/><text text-anchor="middle" transform="translate(242.3633020494045,15)" font-family="'Droid Sans Mono', 'monospace', monospace" font-size="10px" font-weight="normal" fill="#bbbbbb" opacity="1"/><text text-anchor="middle" transform="translate(251.3897775467263,15)" font-family="'Droid Sans Mono', 'monospace', monospace" font-size="10px" font-weight="normal" fill="#bbbbbb" opacity="1"/><text text-anchor="middle" transform="translate(258.7649450357336,15)" font-family="'Droid Sans Mono', 'monospace', monospace" font-size="10px" font-weight="normal" fill="#bbbbbb" opacity="1"/><text text-anchor="middle" transform="translate(265.00056029847076,15)" font-family="'Droid Sans Mono', 'monospace', monospace" font-size="10px" font-weight="normal" fill="#bbbbbb" opacity="1"/><text text-anchor="middle" transform="translate(270.40209593124956,15)" font-family="'Droid Sans Mono', 'monospace', monospace" font-size="10px" font-weight="normal" fill="#bbbbbb" opacity="1"/><text text-anchor="middle" transform="translate(275.1665880220628,15)" font-family="'Droid Sans Mono', 'monospace', monospace" font-size="10px" font-weight="normal" fill="#bbbbbb" opacity="1"/><text text-anchor="middle" transform="translate(279.4285714285714,15)" font-family="'Droid Sans Mono', 'monospace', monospace" font-size="10px" font-weight="normal" fill="#bbbbbb" opacity="1">0.001</text><text text-anchor="middle" transform="translate(307.4673653104165,15)" font-family="'Droid Sans Mono', 'monospace', monospace" font-size="10px" font-weight="normal" fill="#bbbbbb" opacity="1"/><text text-anchor="middle" transform="translate(323.8690082967457,15)" font-family="'Droid Sans Mono', 'monospace', monospace" font-size="10px" font-weight="normal" fill="#bbbbbb" opacity="1"/><text text-anchor="middle" transform="translate(335.50615919226163,15)" font-family="'Droid Sans Mono', 'monospace', monospace" font-size="10px" font-weight="normal" fill="#bbbbbb" opacity="1"/><text text-anchor="middle" transform="translate(344.5326346895834,15)" font-family="'Droid Sans Mono', 'monospace', monospace" font-size="10px" font-weight="normal" fill="#bbbbbb" opacity="1"/><text text-anchor="middle" transform="translate(351.90780217859077,15)" font-family="'Droid Sans Mono', 'monospace', monospace" font-size="10px" font-weight="normal" fill="#bbbbbb" opacity="1"/><text text-anchor="middle" transform="translate(358.14341744132787,15)" font-family="'Droid Sans Mono', 'monospace', monospace" font-size="10px" font-weight="normal" fill="#bbbbbb" opacity="1"/><text text-anchor="middle" transform="translate(363.5449530741067,15)" font-family="'Droid Sans Mono', 'monospace', monospace" font-size="10px" font-weight="normal" fill="#bbbbbb" opacity="1"/><text text-anchor="middle" transform="translate(368.3094451649199,15)" font-family="'Droid Sans Mono', 'monospace', monospace" font-size="10px" font-weight="normal" fill="#bbbbbb" opacity="1"/><text text-anchor="middle" transform="translate(372.5714285714286,15)" font-family="'Droid Sans Mono', 'monospace', monospace" font-size="10px" font-weight="normal" fill="#bbbbbb" opacity="1">0.01</text><text text-anchor="middle" transform="translate(400.61022245327365,15)" font-family="'Droid Sans Mono', 'monospace', monospace" font-size="10px" font-weight="normal" fill="#bbbbbb" opacity="1"/><text text-anchor="middle" transform="translate(417.0118654396028,15)" font-family="'Droid Sans Mono', 'monospace', monospace" font-size="10px" font-weight="normal" fill="#bbbbbb" opacity="1"/><text text-anchor="middle" transform="translate(428.64901633511874,15)" font-family="'Droid Sans Mono', 'monospace', monospace" font-size="10px" font-weight="normal" fill="#bbbbbb" opacity="1"/><text text-anchor="middle" transform="translate(437.67549183244057,15)" font-family="'Droid Sans Mono', 'monospace', monospace" font-size="10px" font-weight="normal" fill="#bbbbbb" opacity="1"/><text text-anchor="middle" transform="translate(445.05065932144794,15)" font-family="'Droid Sans Mono', 'monospace', monospace" font-size="10px" font-weight="normal" fill="#bbbbbb" opacity="1"/><text text-anchor="middle" transform="translate(451.286274584185,15)" font-family="'Droid Sans Mono', 'monospace', monospace" font-size="10px" font-weight="normal" fill="#bbbbbb" opacity="1"/><text text-anchor="middle" transform="translate(456.68781021696384,15)" font-family="'Droid Sans Mono', 'monospace', monospace" font-size="10px" font-weight="normal" fill="#bbbbbb" opacity="1"/><text text-anchor="middle" transform="translate(461.4523023077771,15)" font-family="'Droid Sans Mono', 'monospace', monospace" font-size="10px" font-weight="normal" fill="#bbbbbb" opacity="1"/><text text-anchor="middle" transform="translate(465.7142857142857,15)" font-family="'Droid Sans Mono', 'monospace', monospace" font-size="10px" font-weight="normal" fill="#bbbbbb" opacity="1">0.1</text><text text-anchor="middle" transform="translate(493.7530795961308,15)" font-family="'Droid Sans Mono', 'monospace', monospace" font-size="10px" font-weight="normal" fill="#bbbbbb" opacity="1"/><text text-anchor="middle" transform="translate(510.15472258245995,15)" font-family="'Droid Sans Mono', 'monospace', monospace" font-size="10px" font-weight="normal" fill="#bbbbbb" opacity="1"/><text text-anchor="middle" transform="translate(521.7918734779759,15)" font-family="'Droid Sans Mono', 'monospace', monospace" font-size="10px" font-weight="normal" fill="#bbbbbb" opacity="1"/><text text-anchor="middle" transform="translate(530.8183489752977,15)" font-family="'Droid Sans Mono', 'monospace', monospace" font-size="10px" font-weight="normal" fill="#bbbbbb" opacity="1"/><text text-anchor="middle" transform="translate(538.193516464305,15)" font-family="'Droid Sans Mono', 'monospace', monospace" font-size="10px" font-weight="normal" fill="#bbbbbb" opacity="1"/><text text-anchor="middle" transform="translate(544.4291317270422,15)" font-family="'Droid Sans Mono', 'monospace', monospace" font-size="10px" font-weight="normal" fill="#bbbbbb" opacity="1"/><text text-anchor="middle" transform="translate(549.830667359821,15)" font-family="'Droid Sans Mono', 'monospace', monospace" font-size="10px" font-weight="normal" fill="#bbbbbb" opacity="1"/><text text-anchor="middle" transform="translate(554.5951594506342,15)" font-family="'Droid Sans Mono', 'monospace', monospace" font-size="10px" font-weight="normal" fill="#bbbbbb" opacity="1"/><text text-anchor="middle" transform="translate(558.8571428571428,15)" font-family="'Droid Sans Mono', 'monospace', monospace" font-size="10px" font-weight="normal" fill="#bbbbbb" opacity="1">1</text><text text-anchor="middle" transform="translate(586.8959367389879,15)" font-family="'Droid Sans Mono', 'monospace', monospace" font-size="10px" font-weight="normal" fill="#bbbbbb" opacity="1"/><text text-anchor="middle" transform="translate(603.2975797253171,15)" font-family="'Droid Sans Mono', 'monospace', monospace" font-size="10px" font-weight="normal" fill="#bbbbbb" opacity="1"/><text text-anchor="middle" transform="translate(614.934730620833,15)" font-family="'Droid Sans Mono', 'monospace', monospace" font-size="10px" font-weight="normal" fill="#bbbbbb" opacity="1"/><text text-anchor="middle" transform="translate(623.9612061181548,15)" font-family="'Droid Sans Mono', 'monospace', monospace" font-size="10px" font-weight="normal" fill="#bbbbbb" opacity="1"/><text text-anchor="middle" transform="translate(631.3363736071622,15)" font-family="'Droid Sans Mono', 'monospace', monospace" font-size="10px" font-weight="normal" fill="#bbbbbb" opacity="1"/><text text-anchor="middle" transform="translate(637.5719888698993,15)" font-family="'Droid Sans Mono', 'monospace', monospace" font-size="10px" font-weight="normal" fill="#bbbbbb" opacity="1"/><text text-anchor="middle" transform="translate(642.9735245026782,15)" font-family="'Droid Sans Mono', 'monospace', monospace" font-size="10px" font-weight="normal" fill="#bbbbbb" opacity="1"/><text text-anchor="middle" transform="translate(647.7380165934914,15)" font-family="'Droid Sans Mono', 'monospace', monospace" font-size="10px" font-weight="normal" fill="#bbbbbb" opacity="1"/><text text-anchor="end" transform="translate(652,15)" font-family="'Droid Sans Mono', 'monospace', monospace" font-size="10px" font-weight="normal" fill="#bbbbbb" opacity="1">10</text></g><g class="mark-text role-axis-title" pointer-events="none"><text text-anchor="middle" transform="translate(326,41)" font-family="'Droid Sans Mono', 'monospace', monospace" font-size="12px" font-weight="normal" fill="#bbbbbb" opacity="1">lr</text></g></g><path class="foreground" aria-hidden="true" d="" pointer-events="none" display="none"/></g></g><g class="mark-group role-axis" role="graphics-symbol" aria-roledescription="axis" aria-label="Y-axis titled 'accuracies' for a linear scale with values from 0.000012 to 0.000032"><g transform="translate(0.5,0.5)"><path class="background" aria-hidden="true" d="M0,0h0v0h0Z" pointer-events="none"/><g><g class="mark-rule role-axis-tick" pointer-events="none"><line transform="translate(0,293)" x2="-5" y2="0" stroke="#bbbbbb" stroke-width="1" opacity="1"/><line transform="translate(0,264)" x2="-5" y2="0" stroke="#bbbbbb" stroke-width="1" opacity="1"/><line transform="translate(0,234)" x2="-5" y2="0" stroke="#bbbbbb" stroke-width="1" opacity="1"/><line transform="translate(0,205)" x2="-5" y2="0" stroke="#bbbbbb" stroke-width="1" opacity="1"/><line transform="translate(0,176)" x2="-5" y2="0" stroke="#bbbbbb" stroke-width="1" opacity="1"/><line transform="translate(0,147)" x2="-5" y2="0" stroke="#bbbbbb" stroke-width="1" opacity="1"/><line transform="translate(0,117)" x2="-5" y2="0" stroke="#bbbbbb" stroke-width="1" opacity="1"/><line transform="translate(0,88)" x2="-5" y2="0" stroke="#bbbbbb" stroke-width="1" opacity="1"/><line transform="translate(0,59)" x2="-5" y2="0" stroke="#bbbbbb" stroke-width="1" opacity="1"/><line transform="translate(0,29)" x2="-5" y2="0" stroke="#bbbbbb" stroke-width="1" opacity="1"/><line transform="translate(0,0)" x2="-5" y2="0" stroke="#bbbbbb" stroke-width="1" opacity="1"/></g><g class="mark-text role-axis-label" pointer-events="none"><text text-anchor="end" transform="translate(-7,296)" font-family="'Droid Sans Mono', 'monospace', monospace" font-size="10px" font-weight="normal" fill="#bbbbbb" opacity="1">0.000012</text><text text-anchor="end" transform="translate(-7,266.7)" font-family="'Droid Sans Mono', 'monospace', monospace" font-size="10px" font-weight="normal" fill="#bbbbbb" opacity="1">0.000014</text><text text-anchor="end" transform="translate(-7,237.4)" font-family="'Droid Sans Mono', 'monospace', monospace" font-size="10px" font-weight="normal" fill="#bbbbbb" opacity="1">0.000016</text><text text-anchor="end" transform="translate(-7,208.1)" font-family="'Droid Sans Mono', 'monospace', monospace" font-size="10px" font-weight="normal" fill="#bbbbbb" opacity="1">0.000018</text><text text-anchor="end" transform="translate(-7,178.79999999999995)" font-family="'Droid Sans Mono', 'monospace', monospace" font-size="10px" font-weight="normal" fill="#bbbbbb" opacity="1">0.000020</text><text text-anchor="end" transform="translate(-7,149.5)" font-family="'Droid Sans Mono', 'monospace', monospace" font-size="10px" font-weight="normal" fill="#bbbbbb" opacity="1">0.000022</text><text text-anchor="end" transform="translate(-7,120.19999999999997)" font-family="'Droid Sans Mono', 'monospace', monospace" font-size="10px" font-weight="normal" fill="#bbbbbb" opacity="1">0.000024</text><text text-anchor="end" transform="translate(-7,90.90000000000002)" font-family="'Droid Sans Mono', 'monospace', monospace" font-size="10px" font-weight="normal" fill="#bbbbbb" opacity="1">0.000026</text><text text-anchor="end" transform="translate(-7,61.59999999999999)" font-family="'Droid Sans Mono', 'monospace', monospace" font-size="10px" font-weight="normal" fill="#bbbbbb" opacity="1">0.000028</text><text text-anchor="end" transform="translate(-7,32.29999999999996)" font-family="'Droid Sans Mono', 'monospace', monospace" font-size="10px" font-weight="normal" fill="#bbbbbb" opacity="1">0.000030</text><text text-anchor="end" transform="translate(-7,3)" font-family="'Droid Sans Mono', 'monospace', monospace" font-size="10px" font-weight="normal" fill="#bbbbbb" opacity="1">0.000032</text></g><g class="mark-text role-axis-title" pointer-events="none"><text text-anchor="middle" transform="translate(-63.708984375,146.5) rotate(-90) translate(0,-3)" font-family="'Droid Sans Mono', 'monospace', monospace" font-size="12px" font-weight="normal" fill="#bbbbbb" opacity="1">accuracies</text></g></g><path class="foreground" aria-hidden="true" d="" pointer-events="none" display="none"/></g></g><g class="mark-group role-scope layer_0_pathgroup" role="graphics-object" aria-roledescription="group mark container"><g transform="translate(0,0)"><path class="background" aria-hidden="true" d="M0,0h652v293h-652Z"/><g><g class="mark-line role-mark layer_0_marks" clip-path="url(#clip10)" role="graphics-object" aria-roledescription="line mark container"><path aria-label="lr: 0.00000100000000003; accuracies: 0.0000293938737653; rev: beefy-bort" role="graphics-symbol" aria-roledescription="line mark" d="M0,38.18L3.468,41.014L6.936,44.267L10.404,48.07L13.872,52.254L17.34,57.061L20.809,62.461L24.277,68.413L27.745,75.021L31.213,78.626L34.681,83.473L38.149,87.416L41.617,90.47L45.085,93.994L48.553,94.548L52.021,93.094L55.489,92.092L58.957,91.221L62.426,90.355L65.894,90.275L69.362,90.963L72.83,92.444L76.298,94.149L79.766,95.929L83.234,98.286L86.702,100.179L90.17,101.594L93.638,103.828L97.106,105.695L100.574,107.247L104.043,109.124L107.511,111.289L110.979,111.477L114.447,110.906L117.915,110.638L121.383,110.65L124.851,110.89L128.319,112.164L131.787,114.999L135.255,118.497L138.723,121.741L142.191,123.819L145.66,125.799L149.128,127.297L152.596,127.64L156.064,127.049L159.532,126.467L163,126.333L166.468,126.538L169.936,127.085L173.404,128.012L176.872,128.414L180.34,128.328L183.809,128.57L187.277,128.603L190.745,128.336L194.213,128.348L197.681,129.13L201.149,129.804L204.617,129.536L208.085,129.421L211.553,129.375L215.021,128.808L218.489,128.226L221.957,127.825L225.426,127.812L228.894,128.104L232.362,128.648L235.83,129.622L239.298,130.85L242.766,132.236L246.234,133.754L249.702,135.476L253.17,137.467L256.638,139.292L260.106,140.34L263.574,141.454L267.043,143.014L270.511,144.482L273.979,145.465L277.447,146.186L280.915,146.739L284.383,147.029L287.851,146.935L291.319,146.702L294.787,146.616L298.255,146.451L301.723,146.242L305.191,146.402L308.66,146.789L312.128,147.087L315.596,147.443L319.064,147.661L322.532,147.756L326,147.862L329.468,147.928L332.936,147.805L336.404,147.727L339.872,147.808L343.34,147.53L346.809,146.647L350.277,145.407L353.745,143.929L357.213,142.621L360.681,141.649L364.149,141.198L367.617,141.234L371.085,141.542L374.553,141.419L378.021,140.709L381.489,139.823L384.957,138.863L388.426,138.109L391.894,137.8L395.362,137.879L398.83,138.236L402.298,138.841L405.766,139.659L409.234,140.339L412.702,140.181L416.17,138.586L419.638,136.435L423.106,134.616L426.574,132.804L430.043,131.16L433.511,130.372L436.979,130.727L440.447,131.865L443.915,133.122L447.383,134.228L450.851,135.067L454.319,135.25L457.787,134.761L461.255,134.279L464.723,134.255L468.191,134.623L471.66,135.435L475.128,136.323L478.596,137.096L482.064,137.839L485.532,138.381L489,138.878L492.468,139.337L495.936,139.289L499.404,138.387L502.872,136.633L506.34,134.277L509.809,131.581L513.277,129.491L516.745,128.339L520.213,127.758L523.681,127.741L527.149,128.399L530.617,129.516L534.085,130.45L537.553,130.892L541.021,131.028L544.489,131.351L547.957,132.127L551.426,133.246L554.894,134.333L558.362,135.26L561.83,136.022L565.298,136.888L568.766,137.743L572.234,138.544L575.702,139.647L579.17,141.004L582.638,142.309L586.106,143.595L589.574,145.109L593.043,146.769L596.511,148.374L599.979,149.502L603.447,149.236L606.915,147.825L610.383,144.695L613.851,139.617L617.319,132.647L620.787,124.989L624.255,118.728L627.723,112.851L631.191,107.123L634.66,102.652L638.128,100.039L641.596,98.653L645.064,97.245L648.532,95.871" stroke="#13adc7" stroke-width="2"/></g></g><path class="foreground" aria-hidden="true" d="" display="none"/></g></g><g class="mark-group role-scope layer_1_pathgroup" role="graphics-object" aria-roledescription="group mark container"><g transform="translate(0,0)"><path class="background" aria-hidden="true" d="M0,0h652v293h-652Z"/><g><g class="mark-line role-mark layer_1_marks" clip-path="url(#clip11)" role="graphics-object" aria-roledescription="line mark container"><path aria-label="lr: 0.000001; accuracies: 0.0000166893005371; rev: beefy-bort" role="graphics-symbol" aria-roledescription="line mark" d="M0,224.302L3.468,270.405L6.936,20.624L10.404,19.01L13.872,60.328L17.34,56.436L20.809,91.84L24.277,52.743L27.745,75.057L31.213,99.092L34.681,69.495L38.149,68.118L41.617,93.836L45.085,106.65L48.553,97.353L52.021,93.766L55.489,80.846L58.957,85.885L62.426,90.498L65.894,92.45L69.362,77.718L72.83,80.084L76.298,89.621L79.766,98.795L83.234,107.756L86.702,101.078L90.17,106.047L93.638,95.793L97.106,97.081L100.574,109.269L104.043,111.495L107.511,109.078L110.979,113.622L114.447,123.318L117.915,128.325L121.383,110.363L124.851,107.374L128.319,111.629L131.787,111.126L135.255,119.033L138.723,123.639L142.191,127.252L145.66,130.854L149.128,123.083L152.596,128.669L156.064,133.743L159.532,127.712L163,120.732L166.468,124.102L169.936,126.32L173.404,128.821L176.872,130.664L180.34,130.732L183.809,119.801L187.277,126.265L190.745,129.527L194.213,129.191L197.681,127.517L201.149,127.744L204.617,133.445L208.085,133.924L211.553,125.077L215.021,127.946L218.489,131.951L221.957,123.992L225.426,128.164L228.894,126.838L232.362,128.43L235.83,129.975L239.298,129.556L242.766,133.266L246.234,133.252L249.702,135.98L253.17,136.767L256.638,139.432L260.106,142.172L263.574,145.434L267.043,138.443L270.511,142.755L273.979,147.173L277.447,149.971L280.915,147.04L284.383,146.866L287.851,146.533L291.319,147.093L294.787,146.528L298.255,145.481L301.723,147.593L305.191,146.047L308.66,144.655L312.128,146.97L315.596,150.174L319.064,146.333L322.532,149.476L326,147.232L329.468,147.228L332.936,147.793L336.404,149.185L339.872,147.015L343.34,146.809L346.809,149.149L350.277,147.496L353.745,142.498L357.213,142.56L360.681,137.927L364.149,140.659L367.617,139.829L371.085,142.589L374.553,141.983L378.021,144.216L381.489,140.6L384.957,135.634L388.426,137.647L391.894,136.029L395.362,137.114L398.83,139.179L402.298,138.969L405.766,139.493L409.234,139.394L412.702,142.753L416.17,141.701L419.638,140.682L423.106,130.098L426.574,127.995L430.043,130.435L433.511,129.952L436.979,129.258L440.447,130.494L443.915,133.106L447.383,136.138L450.851,136.808L454.319,135.73L457.787,136.855L461.255,134.028L464.723,131.06L468.191,132.049L471.66,135.98L475.128,136.413L478.596,139.542L482.064,138.999L485.532,136.357L489,139.757L492.468,138.538L495.936,140.129L499.404,141.742L502.872,139.008L506.34,135.207L509.809,129.457L513.277,127.985L516.745,123.749L520.213,125.162L523.681,129.212L527.149,128.211L530.617,128.934L534.085,130.042L537.553,133.545L541.021,132.518L544.489,130.967L547.957,129.183L551.426,131.339L554.894,134.869L558.362,138.931L561.83,137.037L565.298,137.033L568.766,134.717L572.234,138.587L575.702,140.758L579.17,140.035L582.638,142.839L586.106,144.738L589.574,144.737L593.043,145.54L596.511,148.597L599.979,151.865L603.447,151.08L606.915,154.069L610.383,147.355L613.851,141.614L617.319,136.717L620.787,120.516L624.255,102.044L627.723,105.492L631.191,101.578L634.66,105.654L638.128,94.752L641.596,97.385L645.064,96.608L648.532,97.646" stroke="#13adc7" stroke-width="2" opacity="0.2"/></g></g><path class="foreground" aria-hidden="true" d="" display="none"/></g></g><g class="mark-symbol role-mark layer_2_marks" clip-path="url(#clip12)" role="graphics-object" aria-roledescription="symbol mark container" pointer-events="none"><path aria-label="lr: 9.17837837715; accuracies: 0.0000253347672566; rev: beefy-bort" role="graphics-symbol" aria-roledescription="circle" transform="translate(648.5319148936162,97.6456596900939)" d="M1.581,0A1.581,1.581,0,1,1,-1.581,0A1.581,1.581,0,1,1,1.581,0" fill="#13adc7" stroke-width="2"/></g><g class="mark-group role-legend" role="graphics-symbol" aria-roledescription="legend" aria-label="Symbol legend titled 'rev' for fill color and stroke color with 1 value: beefy-bort"><g transform="translate(670,0)"><path class="background" aria-hidden="true" d="M0,0h62v30h-62Z" pointer-events="none"/><g><g class="mark-group role-legend-entry"><g transform="translate(0,17)"><path class="background" aria-hidden="true" d="M0,0h0v0h0Z" pointer-events="none"/><g><g class="mark-group role-scope" role="graphics-object" aria-roledescription="group mark container"><g transform="translate(0,0)"><path class="background" aria-hidden="true" d="M0,0h61.0244140625v12.5h-61.0244140625Z" pointer-events="none" opacity="1"/><g><g class="mark-symbol role-legend-symbol" pointer-events="none"><path transform="translate(6,6)" d="M5,0A5,5,0,1,1,-5,0A5,5,0,1,1,5,0" fill="#13adc7" stroke="#13adc7" stroke-width="1.5" opacity="0.2"/></g><g class="mark-text role-legend-label" pointer-events="none"><text text-anchor="start" transform="translate(16,9)" font-family="'Droid Sans Mono', 'monospace', monospace" font-size="10px" font-weight="normal" fill="#bbbbbb" opacity="1">beefy-bort</text></g></g><path class="foreground" aria-hidden="true" d="" pointer-events="none" display="none"/></g></g></g><path class="foreground" aria-hidden="true" d="" pointer-events="none" display="none"/></g></g><g class="mark-text role-legend-title" pointer-events="none"><text text-anchor="start" transform="translate(0,9)" font-family="'Droid Sans Mono', 'monospace', monospace" font-size="12px" font-weight="normal" fill="#bbbbbb" opacity="1">rev</text></g></g><path class="foreground" aria-hidden="true" d="" pointer-events="none" display="none"/></g></g><g class="mark-group role-title"><g transform="translate(326,-21)"><path class="background" aria-hidden="true" d="M0,0h0v0h0Z" pointer-events="none"/><g><g class="mark-text role-title-text" role="graphics-symbol" aria-roledescription="title" aria-label="Title text 'lr_vs_accuracies'" pointer-events="none"><text text-anchor="middle" transform="translate(0,9)" font-family="'Droid Sans Mono', 'monospace', monospace" font-size="12px" font-weight="normal" fill="#bbbbbb" opacity="1">lr_vs_accuracies</text></g></g><path class="foreground" aria-hidden="true" d="" pointer-events="none" display="none"/></g></g></g><path class="foreground" aria-hidden="true" d="" display="none"/></g></g></g><defs><clipPath id="clip10"><rect x="0" y="0" width="652" height="293"/></clipPath><clipPath id="clip11"><rect x="0" y="0" width="652" height="293"/></clipPath><clipPath id="clip12"><rect x="0" y="0" width="652" height="293"/></clipPath></defs></svg>