<svg xmlns="http://www.w3.org/2000/svg" xmlns:xlink="http://www.w3.org/1999/xlink" version="1.1" class="marks" width="100%" height="100%" ><rect width="100%" height="100%" fill="#232530"/><g fill="none" stroke-miterlimit="10" transform="translate(75,42)"><g class="mark-group role-frame root" role="graphics-object" aria-roledescription="group mark container"><g transform="translate(0,0)"><path class="background" aria-hidden="true" d="M0.5,0.5h674v293h-674Z" stroke="#bbbbbb"/><g><g class="mark-group role-axis" aria-hidden="true"><g transform="translate(0.5,293.5)"><path class="background" aria-hidden="true" d="M0,0h0v0h0Z" pointer-events="none"/><g><g class="mark-rule role-axis-grid" pointer-events="none"><line transform="translate(0,-293)" x2="0" y2="293" stroke="#bbbbbb" stroke-opacity="0.25" stroke-width="1" opacity="1"/><line transform="translate(29,-293)" x2="0" y2="293" stroke="#bbbbbb" stroke-opacity="0.25" stroke-width="1" opacity="1"/><line transform="translate(46,-293)" x2="0" y2="293" stroke="#bbbbbb" stroke-opacity="0.25" stroke-width="1" opacity="1"/><line transform="translate(58,-293)" x2="0" y2="293" stroke="#bbbbbb" stroke-opacity="0.25" stroke-width="1" opacity="1"/><line transform="translate(67,-293)" x2="0" y2="293" stroke="#bbbbbb" stroke-opacity="0.25" stroke-width="1" opacity="1"/><line transform="translate(75,-293)" x2="0" y2="293" stroke="#bbbbbb" stroke-opacity="0.25" stroke-width="1" opacity="1"/><line transform="translate(81,-293)" x2="0" y2="293" stroke="#bbbbbb" stroke-opacity="0.25" stroke-width="1" opacity="1"/><line transform="translate(87,-293)" x2="0" y2="293" stroke="#bbbbbb" stroke-opacity="0.25" stroke-width="1" opacity="1"/><line transform="translate(92,-293)" x2="0" y2="293" stroke="#bbbbbb" stroke-opacity="0.25" stroke-width="1" opacity="1"/><line transform="translate(96,-293)" x2="0" y2="293" stroke="#bbbbbb" stroke-opacity="0.25" stroke-width="1" opacity="1"/><line transform="translate(125,-293)" x2="0" y2="293" stroke="#bbbbbb" stroke-opacity="0.25" stroke-width="1" opacity="1"/><line transform="translate(142,-293)" x2="0" y2="293" stroke="#bbbbbb" stroke-opacity="0.25" stroke-width="1" opacity="1"/><line transform="translate(154,-293)" x2="0" y2="293" stroke="#bbbbbb" stroke-opacity="0.25" stroke-width="1" opacity="1"/><line transform="translate(164,-293)" x2="0" y2="293" stroke="#bbbbbb" stroke-opacity="0.25" stroke-width="1" opacity="1"/><line transform="translate(171,-293)" x2="0" y2="293" stroke="#bbbbbb" stroke-opacity="0.25" stroke-width="1" opacity="1"/><line transform="translate(178,-293)" x2="0" y2="293" stroke="#bbbbbb" stroke-opacity="0.25" stroke-width="1" opacity="1"/><line transform="translate(183,-293)" x2="0" y2="293" stroke="#bbbbbb" stroke-opacity="0.25" stroke-width="1" opacity="1"/><line transform="translate(188,-293)" x2="0" y2="293" stroke="#bbbbbb" stroke-opacity="0.25" stroke-width="1" opacity="1"/><line transform="translate(193,-293)" x2="0" y2="293" stroke="#bbbbbb" stroke-opacity="0.25" stroke-width="1" opacity="1"/><line transform="translate(222,-293)" x2="0" y2="293" stroke="#bbbbbb" stroke-opacity="0.25" stroke-width="1" opacity="1"/><line transform="translate(239,-293)" x2="0" y2="293" stroke="#bbbbbb" stroke-opacity="0.25" stroke-width="1" opacity="1"/><line transform="translate(251,-293)" x2="0" y2="293" stroke="#bbbbbb" stroke-opacity="0.25" stroke-width="1" opacity="1"/><line transform="translate(260,-293)" x2="0" y2="293" stroke="#bbbbbb" stroke-opacity="0.25" stroke-width="1" opacity="1"/><line transform="translate(267,-293)" x2="0" y2="293" stroke="#bbbbbb" stroke-opacity="0.25" stroke-width="1" opacity="1"/><line transform="translate(274,-293)" x2="0" y2="293" stroke="#bbbbbb" stroke-opacity="0.25" stroke-width="1" opacity="1"/><line transform="translate(280,-293)" x2="0" y2="293" stroke="#bbbbbb" stroke-opacity="0.25" stroke-width="1" opacity="1"/><line transform="translate(284,-293)" x2="0" y2="293" stroke="#bbbbbb" stroke-opacity="0.25" stroke-width="1" opacity="1"/><line transform="translate(289,-293)" x2="0" y2="293" stroke="#bbbbbb" stroke-opacity="0.25" stroke-width="1" opacity="1"/><line transform="translate(318,-293)" x2="0" y2="293" stroke="#bbbbbb" stroke-opacity="0.25" stroke-width="1" opacity="1"/><line transform="translate(335,-293)" x2="0" y2="293" stroke="#bbbbbb" stroke-opacity="0.25" stroke-width="1" opacity="1"/><line transform="translate(347,-293)" x2="0" y2="293" stroke="#bbbbbb" stroke-opacity="0.25" stroke-width="1" opacity="1"/><line transform="translate(356,-293)" x2="0" y2="293" stroke="#bbbbbb" stroke-opacity="0.25" stroke-width="1" opacity="1"/><line transform="translate(364,-293)" x2="0" y2="293" stroke="#bbbbbb" stroke-opacity="0.25" stroke-width="1" opacity="1"/><line transform="translate(370,-293)" x2="0" y2="293" stroke="#bbbbbb" stroke-opacity="0.25" stroke-width="1" opacity="1"/><line transform="translate(376,-293)" x2="0" y2="293" stroke="#bbbbbb" stroke-opacity="0.25" stroke-width="1" opacity="1"/><line transform="translate(381,-293)" x2="0" y2="293" stroke="#bbbbbb" stroke-opacity="0.25" stroke-width="1" opacity="1"/><line transform="translate(385,-293)" x2="0" y2="293" stroke="#bbbbbb" stroke-opacity="0.25" stroke-width="1" opacity="1"/><line transform="translate(414,-293)" x2="0" y2="293" stroke="#bbbbbb" stroke-opacity="0.25" stroke-width="1" opacity="1"/><line transform="translate(431,-293)" x2="0" y2="293" stroke="#bbbbbb" stroke-opacity="0.25" stroke-width="1" opacity="1"/><line transform="translate(443,-293)" x2="0" y2="293" stroke="#bbbbbb" stroke-opacity="0.25" stroke-width="1" opacity="1"/><line transform="translate(452,-293)" x2="0" y2="293" stroke="#bbbbbb" stroke-opacity="0.25" stroke-width="1" opacity="1"/><line transform="translate(460,-293)" x2="0" y2="293" stroke="#bbbbbb" stroke-opacity="0.25" stroke-width="1" opacity="1"/><line transform="translate(467,-293)" x2="0" y2="293" stroke="#bbbbbb" stroke-opacity="0.25" stroke-width="1" opacity="1"/><line transform="translate(472,-293)" x2="0" y2="293" stroke="#bbbbbb" stroke-opacity="0.25" stroke-width="1" opacity="1"/><line transform="translate(477,-293)" x2="0" y2="293" stroke="#bbbbbb" stroke-opacity="0.25" stroke-width="1" opacity="1"/><line transform="translate(481,-293)" x2="0" y2="293" stroke="#bbbbbb" stroke-opacity="0.25" stroke-width="1" opacity="1"/><line transform="translate(510,-293)" x2="0" y2="293" stroke="#bbbbbb" stroke-opacity="0.25" stroke-width="1" opacity="1"/><line transform="translate(527,-293)" x2="0" y2="293" stroke="#bbbbbb" stroke-opacity="0.25" stroke-width="1" opacity="1"/><line transform="translate(539,-293)" x2="0" y2="293" stroke="#bbbbbb" stroke-opacity="0.25" stroke-width="1" opacity="1"/><line transform="translate(549,-293)" x2="0" y2="293" stroke="#bbbbbb" stroke-opacity="0.25" stroke-width="1" opacity="1"/><line transform="translate(556,-293)" x2="0" y2="293" stroke="#bbbbbb" stroke-opacity="0.25" stroke-width="1" opacity="1"/><line transform="translate(563,-293)" x2="0" y2="293" stroke="#bbbbbb" stroke-opacity="0.25" stroke-width="1" opacity="1"/><line transform="translate(568,-293)" x2="0" y2="293" stroke="#bbbbbb" stroke-opacity="0.25" stroke-width="1" opacity="1"/><line transform="translate(573,-293)" x2="0" y2="293" stroke="#bbbbbb" stroke-opacity="0.25" stroke-width="1" opacity="1"/><line transform="translate(578,-293)" x2="0" y2="293" stroke="#bbbbbb" stroke-opacity="0.25" stroke-width="1" opacity="1"/><line transform="translate(607,-293)" x2="0" y2="293" stroke="#bbbbbb" stroke-opacity="0.25" stroke-width="1" opacity="1"/><line transform="translate(624,-293)" x2="0" y2="293" stroke="#bbbbbb" stroke-opacity="0.25" stroke-width="1" opacity="1"/><line transform="translate(636,-293)" x2="0" y2="293" stroke="#bbbbbb" stroke-opacity="0.25" stroke-width="1" opacity="1"/><line transform="translate(645,-293)" x2="0" y2="293" stroke="#bbbbbb" stroke-opacity="0.25" stroke-width="1" opacity="1"/><line transform="translate(653,-293)" x2="0" y2="293" stroke="#bbbbbb" stroke-opacity="0.25" stroke-width="1" opacity="1"/><line transform="translate(659,-293)" x2="0" y2="293" stroke="#bbbbbb" stroke-opacity="0.25" stroke-width="1" opacity="1"/><line transform="translate(665,-293)" x2="0" y2="293" stroke="#bbbbbb" stroke-opacity="0.25" stroke-width="1" opacity="1"/><line transform="translate(670,-293)" x2="0" y2="293" stroke="#bbbbbb" stroke-opacity="0.25" stroke-width="1" opacity="1"/><line transform="translate(674,-293)" x2="0" y2="293" stroke="#bbbbbb" stroke-opacity="0.25" stroke-width="1" opacity="1"/></g></g><path class="foreground" aria-hidden="true" d="" pointer-events="none" display="none"/></g></g><g class="mark-group role-axis" aria-hidden="true"><g transform="translate(0.5,0.5)"><path class="background" aria-hidden="true" d="M0,0h0v0h0Z" pointer-events="none"/><g><g class="mark-rule role-axis-grid" pointer-events="none"><line transform="translate(0,293)" x2="674" y2="0" stroke="#bbbbbb" stroke-opacity="0.25" stroke-width="1" opacity="1"/><line transform="translate(0,266)" x2="674" y2="0" stroke="#bbbbbb" stroke-opacity="0.25" stroke-width="1" opacity="1"/><line transform="translate(0,240)" x2="674" y2="0" stroke="#bbbbbb" stroke-opacity="0.25" stroke-width="1" opacity="1"/><line transform="translate(0,213)" x2="674" y2="0" stroke="#bbbbbb" stroke-opacity="0.25" stroke-width="1" opacity="1"/><line transform="translate(0,186)" x2="674" y2="0" stroke="#bbbbbb" stroke-opacity="0.25" stroke-width="1" opacity="1"/><line transform="translate(0,160)" x2="674" y2="0" stroke="#bbbbbb" stroke-opacity="0.25" stroke-width="1" opacity="1"/><line transform="translate(0,133)" x2="674" y2="0" stroke="#bbbbbb" stroke-opacity="0.25" stroke-width="1" opacity="1"/><line transform="translate(0,107)" x2="674" y2="0" stroke="#bbbbbb" stroke-opacity="0.25" stroke-width="1" opacity="1"/><line transform="translate(0,80)" x2="674" y2="0" stroke="#bbbbbb" stroke-opacity="0.25" stroke-width="1" opacity="1"/><line transform="translate(0,53)" x2="674" y2="0" stroke="#bbbbbb" stroke-opacity="0.25" stroke-width="1" opacity="1"/><line transform="translate(0,27)" x2="674" y2="0" stroke="#bbbbbb" stroke-opacity="0.25" stroke-width="1" opacity="1"/><line transform="translate(0,0)" x2="674" y2="0" stroke="#bbbbbb" stroke-opacity="0.25" stroke-width="1" opacity="1"/></g></g><path class="foreground" aria-hidden="true" d="" pointer-events="none" display="none"/></g></g><g class="mark-group role-axis" role="graphics-symbol" aria-roledescription="axis" aria-label="X-axis titled 'lr' for a log scale with values from 0.000001 to 10"><g transform="translate(0.5,293.5)"><path class="background" aria-hidden="true" d="M0,0h0v0h0Z" pointer-events="none"/><g><g class="mark-rule role-axis-tick" pointer-events="none"><line transform="translate(0,0)" x2="0" y2="5" stroke="#bbbbbb" stroke-width="1" opacity="1"/><line transform="translate(29,0)" x2="0" y2="5" stroke="#bbbbbb" stroke-width="1" opacity="1"/><line transform="translate(46,0)" x2="0" y2="5" stroke="#bbbbbb" stroke-width="1" opacity="1"/><line transform="translate(58,0)" x2="0" y2="5" stroke="#bbbbbb" stroke-width="1" opacity="1"/><line transform="translate(67,0)" x2="0" y2="5" stroke="#bbbbbb" stroke-width="1" opacity="1"/><line transform="translate(75,0)" x2="0" y2="5" stroke="#bbbbbb" stroke-width="1" opacity="1"/><line transform="translate(81,0)" x2="0" y2="5" stroke="#bbbbbb" stroke-width="1" opacity="1"/><line transform="translate(87,0)" x2="0" y2="5" stroke="#bbbbbb" stroke-width="1" opacity="1"/><line transform="translate(92,0)" x2="0" y2="5" stroke="#bbbbbb" stroke-width="1" opacity="1"/><line transform="translate(96,0)" x2="0" y2="5" stroke="#bbbbbb" stroke-width="1" opacity="1"/><line transform="translate(125,0)" x2="0" y2="5" stroke="#bbbbbb" stroke-width="1" opacity="1"/><line transform="translate(142,0)" x2="0" y2="5" stroke="#bbbbbb" stroke-width="1" opacity="1"/><line transform="translate(154,0)" x2="0" y2="5" stroke="#bbbbbb" stroke-width="1" opacity="1"/><line transform="translate(164,0)" x2="0" y2="5" stroke="#bbbbbb" stroke-width="1" opacity="1"/><line transform="translate(171,0)" x2="0" y2="5" stroke="#bbbbbb" stroke-width="1" opacity="1"/><line transform="translate(178,0)" x2="0" y2="5" stroke="#bbbbbb" stroke-width="1" opacity="1"/><line transform="translate(183,0)" x2="0" y2="5" stroke="#bbbbbb" stroke-width="1" opacity="1"/><line transform="translate(188,0)" x2="0" y2="5" stroke="#bbbbbb" stroke-width="1" opacity="1"/><line transform="translate(193,0)" x2="0" y2="5" stroke="#bbbbbb" stroke-width="1" opacity="1"/><line transform="translate(222,0)" x2="0" y2="5" stroke="#bbbbbb" stroke-width="1" opacity="1"/><line transform="translate(239,0)" x2="0" y2="5" stroke="#bbbbbb" stroke-width="1" opacity="1"/><line transform="translate(251,0)" x2="0" y2="5" stroke="#bbbbbb" stroke-width="1" opacity="1"/><line transform="translate(260,0)" x2="0" y2="5" stroke="#bbbbbb" stroke-width="1" opacity="1"/><line transform="translate(267,0)" x2="0" y2="5" stroke="#bbbbbb" stroke-width="1" opacity="1"/><line transform="translate(274,0)" x2="0" y2="5" stroke="#bbbbbb" stroke-width="1" opacity="1"/><line transform="translate(280,0)" x2="0" y2="5" stroke="#bbbbbb" stroke-width="1" opacity="1"/><line transform="translate(284,0)" x2="0" y2="5" stroke="#bbbbbb" stroke-width="1" opacity="1"/><line transform="translate(289,0)" x2="0" y2="5" stroke="#bbbbbb" stroke-width="1" opacity="1"/><line transform="translate(318,0)" x2="0" y2="5" stroke="#bbbbbb" stroke-width="1" opacity="1"/><line transform="translate(335,0)" x2="0" y2="5" stroke="#bbbbbb" stroke-width="1" opacity="1"/><line transform="translate(347,0)" x2="0" y2="5" stroke="#bbbbbb" stroke-width="1" opacity="1"/><line transform="translate(356,0)" x2="0" y2="5" stroke="#bbbbbb" stroke-width="1" opacity="1"/><line transform="translate(364,0)" x2="0" y2="5" stroke="#bbbbbb" stroke-width="1" opacity="1"/><line transform="translate(370,0)" x2="0" y2="5" stroke="#bbbbbb" stroke-width="1" opacity="1"/><line transform="translate(376,0)" x2="0" y2="5" stroke="#bbbbbb" stroke-width="1" opacity="1"/><line transform="translate(381,0)" x2="0" y2="5" stroke="#bbbbbb" stroke-width="1" opacity="1"/><line transform="translate(385,0)" x2="0" y2="5" stroke="#bbbbbb" stroke-width="1" opacity="1"/><line transform="translate(414,0)" x2="0" y2="5" stroke="#bbbbbb" stroke-width="1" opacity="1"/><line transform="translate(431,0)" x2="0" y2="5" stroke="#bbbbbb" stroke-width="1" opacity="1"/><line transform="translate(443,0)" x2="0" y2="5" stroke="#bbbbbb" stroke-width="1" opacity="1"/><line transform="translate(452,0)" x2="0" y2="5" stroke="#bbbbbb" stroke-width="1" opacity="1"/><line transform="translate(460,0)" x2="0" y2="5" stroke="#bbbbbb" stroke-width="1" opacity="1"/><line transform="translate(467,0)" x2="0" y2="5" stroke="#bbbbbb" stroke-width="1" opacity="1"/><line transform="translate(472,0)" x2="0" y2="5" stroke="#bbbbbb" stroke-width="1" opacity="1"/><line transform="translate(477,0)" x2="0" y2="5" stroke="#bbbbbb" stroke-width="1" opacity="1"/><line transform="translate(481,0)" x2="0" y2="5" stroke="#bbbbbb" stroke-width="1" opacity="1"/><line transform="translate(510,0)" x2="0" y2="5" stroke="#bbbbbb" stroke-width="1" opacity="1"/><line transform="translate(527,0)" x2="0" y2="5" stroke="#bbbbbb" stroke-width="1" opacity="1"/><line transform="translate(539,0)" x2="0" y2="5" stroke="#bbbbbb" stroke-width="1" opacity="1"/><line transform="translate(549,0)" x2="0" y2="5" stroke="#bbbbbb" stroke-width="1" opacity="1"/><line transform="translate(556,0)" x2="0" y2="5" stroke="#bbbbbb" stroke-width="1" opacity="1"/><line transform="translate(563,0)" x2="0" y2="5" stroke="#bbbbbb" stroke-width="1" opacity="1"/><line transform="translate(568,0)" x2="0" y2="5" stroke="#bbbbbb" stroke-width="1" opacity="1"/><line transform="translate(573,0)" x2="0" y2="5" stroke="#bbbbbb" stroke-width="1" opacity="1"/><line transform="translate(578,0)" x2="0" y2="5" stroke="#bbbbbb" stroke-width="1" opacity="1"/><line transform="translate(607,0)" x2="0" y2="5" stroke="#bbbbbb" stroke-width="1" opacity="1"/><line transform="translate(624,0)" x2="0" y2="5" stroke="#bbbbbb" stroke-width="1" opacity="1"/><line transform="translate(636,0)" x2="0" y2="5" stroke="#bbbbbb" stroke-width="1" opacity="1"/><line transform="translate(645,0)" x2="0" y2="5" stroke="#bbbbbb" stroke-width="1" opacity="1"/><line transform="translate(653,0)" x2="0" y2="5" stroke="#bbbbbb" stroke-width="1" opacity="1"/><line transform="translate(659,0)" x2="0" y2="5" stroke="#bbbbbb" stroke-width="1" opacity="1"/><line transform="translate(665,0)" x2="0" y2="5" stroke="#bbbbbb" stroke-width="1" opacity="1"/><line transform="translate(670,0)" x2="0" y2="5" stroke="#bbbbbb" stroke-width="1" opacity="1"/><line transform="translate(674,0)" x2="0" y2="5" stroke="#bbbbbb" stroke-width="1" opacity="1"/></g><g class="mark-text role-axis-label" pointer-events="none"><text text-anchor="start" transform="translate(0,15)" font-family="'Droid Sans Mono', 'monospace', monospace" font-size="10px" font-weight="normal" fill="#bbbbbb" opacity="1">0.000001</text><text text-anchor="middle" transform="translate(28.984888153931905,15)" font-family="'Droid Sans Mono', 'monospace', monospace" font-size="10px" font-weight="normal" fill="#bbbbbb" opacity="1"/><text text-anchor="middle" transform="translate(45.939960811578906,15)" font-family="'Droid Sans Mono', 'monospace', monospace" font-size="10px" font-weight="normal" fill="#bbbbbb" opacity="1"/><text text-anchor="middle" transform="translate(57.96977630786381,15)" font-family="'Droid Sans Mono', 'monospace', monospace" font-size="10px" font-weight="normal" fill="#bbbbbb" opacity="1"/><text text-anchor="middle" transform="translate(67.30082613178234,15)" font-family="'Droid Sans Mono', 'monospace', monospace" font-size="10px" font-weight="normal" fill="#bbbbbb" opacity="1"/><text text-anchor="middle" transform="translate(74.9248489655108,15)" font-family="'Droid Sans Mono', 'monospace', monospace" font-size="10px" font-weight="normal" fill="#bbbbbb" opacity="1"/><text text-anchor="middle" transform="translate(81.37086842422987,15)" font-family="'Droid Sans Mono', 'monospace', monospace" font-size="10px" font-weight="normal" fill="#bbbbbb" opacity="1"/><text text-anchor="middle" transform="translate(86.95466446179572,15)" font-family="'Droid Sans Mono', 'monospace', monospace" font-size="10px" font-weight="normal" fill="#bbbbbb" opacity="1"/><text text-anchor="middle" transform="translate(91.87992162315781,15)" font-family="'Droid Sans Mono', 'monospace', monospace" font-size="10px" font-weight="normal" fill="#bbbbbb" opacity="1"/><text text-anchor="middle" transform="translate(96.28571428571426,15)" font-family="'Droid Sans Mono', 'monospace', monospace" font-size="10px" font-weight="normal" fill="#bbbbbb" opacity="1">0.00001</text><text text-anchor="middle" transform="translate(125.27060243964617,15)" font-family="'Droid Sans Mono', 'monospace', monospace" font-size="10px" font-weight="normal" fill="#bbbbbb" opacity="1"/><text text-anchor="middle" transform="translate(142.22567509729313,15)" font-family="'Droid Sans Mono', 'monospace', monospace" font-size="10px" font-weight="normal" fill="#bbbbbb" opacity="1"/><text text-anchor="middle" transform="translate(154.2554905935781,15)" font-family="'Droid Sans Mono', 'monospace', monospace" font-size="10px" font-weight="normal" fill="#bbbbbb" opacity="1"/><text text-anchor="middle" transform="translate(163.58654041749668,15)" font-family="'Droid Sans Mono', 'monospace', monospace" font-size="10px" font-weight="normal" fill="#bbbbbb" opacity="1"/><text text-anchor="middle" transform="translate(171.21056325122507,15)" font-family="'Droid Sans Mono', 'monospace', monospace" font-size="10px" font-weight="normal" fill="#bbbbbb" opacity="1"/><text text-anchor="middle" transform="translate(177.65658270994413,15)" font-family="'Droid Sans Mono', 'monospace', monospace" font-size="10px" font-weight="normal" fill="#bbbbbb" opacity="1"/><text text-anchor="middle" transform="translate(183.24037874751,15)" font-family="'Droid Sans Mono', 'monospace', monospace" font-size="10px" font-weight="normal" fill="#bbbbbb" opacity="1"/><text text-anchor="middle" transform="translate(188.16563590887213,15)" font-family="'Droid Sans Mono', 'monospace', monospace" font-size="10px" font-weight="normal" fill="#bbbbbb" opacity="1"/><text text-anchor="middle" transform="translate(192.5714285714286,15)" font-family="'Droid Sans Mono', 'monospace', monospace" font-size="10px" font-weight="normal" fill="#bbbbbb" opacity="1">0.0001</text><text text-anchor="middle" transform="translate(221.5563167253604,15)" font-family="'Droid Sans Mono', 'monospace', monospace" font-size="10px" font-weight="normal" fill="#bbbbbb" opacity="1"/><text text-anchor="middle" transform="translate(238.51138938300747,15)" font-family="'Droid Sans Mono', 'monospace', monospace" font-size="10px" font-weight="normal" fill="#bbbbbb" opacity="1"/><text text-anchor="middle" transform="translate(250.54120487929237,15)" font-family="'Droid Sans Mono', 'monospace', monospace" font-size="10px" font-weight="normal" fill="#bbbbbb" opacity="1"/><text text-anchor="middle" transform="translate(259.8722547032109,15)" font-family="'Droid Sans Mono', 'monospace', monospace" font-size="10px" font-weight="normal" fill="#bbbbbb" opacity="1"/><text text-anchor="middle" transform="translate(267.4962775369394,15)" font-family="'Droid Sans Mono', 'monospace', monospace" font-size="10px" font-weight="normal" fill="#bbbbbb" opacity="1"/><text text-anchor="middle" transform="translate(273.9422969956584,15)" font-family="'Droid Sans Mono', 'monospace', monospace" font-size="10px" font-weight="normal" fill="#bbbbbb" opacity="1"/><text text-anchor="middle" transform="translate(279.52609303322424,15)" font-family="'Droid Sans Mono', 'monospace', monospace" font-size="10px" font-weight="normal" fill="#bbbbbb" opacity="1"/><text text-anchor="middle" transform="translate(284.4513501945864,15)" font-family="'Droid Sans Mono', 'monospace', monospace" font-size="10px" font-weight="normal" fill="#bbbbbb" opacity="1"/><text text-anchor="middle" transform="translate(288.85714285714283,15)" font-family="'Droid Sans Mono', 'monospace', monospace" font-size="10px" font-weight="normal" fill="#bbbbbb" opacity="1">0.001</text><text text-anchor="middle" transform="translate(317.8420310110747,15)" font-family="'Droid Sans Mono', 'monospace', monospace" font-size="10px" font-weight="normal" fill="#bbbbbb" opacity="1"/><text text-anchor="middle" transform="translate(334.7971036687217,15)" font-family="'Droid Sans Mono', 'monospace', monospace" font-size="10px" font-weight="normal" fill="#bbbbbb" opacity="1"/><text text-anchor="middle" transform="translate(346.82691916500664,15)" font-family="'Droid Sans Mono', 'monospace', monospace" font-size="10px" font-weight="normal" fill="#bbbbbb" opacity="1"/><text text-anchor="middle" transform="translate(356.1579689889252,15)" font-family="'Droid Sans Mono', 'monospace', monospace" font-size="10px" font-weight="normal" fill="#bbbbbb" opacity="1"/><text text-anchor="middle" transform="translate(363.78199182265365,15)" font-family="'Droid Sans Mono', 'monospace', monospace" font-size="10px" font-weight="normal" fill="#bbbbbb" opacity="1"/><text text-anchor="middle" transform="translate(370.2280112813727,15)" font-family="'Droid Sans Mono', 'monospace', monospace" font-size="10px" font-weight="normal" fill="#bbbbbb" opacity="1"/><text text-anchor="middle" transform="translate(375.81180731893846,15)" font-family="'Droid Sans Mono', 'monospace', monospace" font-size="10px" font-weight="normal" fill="#bbbbbb" opacity="1"/><text text-anchor="middle" transform="translate(380.7370644803006,15)" font-family="'Droid Sans Mono', 'monospace', monospace" font-size="10px" font-weight="normal" fill="#bbbbbb" opacity="1"/><text text-anchor="middle" transform="translate(385.1428571428572,15)" font-family="'Droid Sans Mono', 'monospace', monospace" font-size="10px" font-weight="normal" fill="#bbbbbb" opacity="1">0.01</text><text text-anchor="middle" transform="translate(414.127745296789,15)" font-family="'Droid Sans Mono', 'monospace', monospace" font-size="10px" font-weight="normal" fill="#bbbbbb" opacity="1"/><text text-anchor="middle" transform="translate(431.082817954436,15)" font-family="'Droid Sans Mono', 'monospace', monospace" font-size="10px" font-weight="normal" fill="#bbbbbb" opacity="1"/><text text-anchor="middle" transform="translate(443.1126334507209,15)" font-family="'Droid Sans Mono', 'monospace', monospace" font-size="10px" font-weight="normal" fill="#bbbbbb" opacity="1"/><text text-anchor="middle" transform="translate(452.44368327463945,15)" font-family="'Droid Sans Mono', 'monospace', monospace" font-size="10px" font-weight="normal" fill="#bbbbbb" opacity="1"/><text text-anchor="middle" transform="translate(460.06770610836793,15)" font-family="'Droid Sans Mono', 'monospace', monospace" font-size="10px" font-weight="normal" fill="#bbbbbb" opacity="1"/><text text-anchor="middle" transform="translate(466.51372556708696,15)" font-family="'Droid Sans Mono', 'monospace', monospace" font-size="10px" font-weight="normal" fill="#bbbbbb" opacity="1"/><text text-anchor="middle" transform="translate(472.0975216046528,15)" font-family="'Droid Sans Mono', 'monospace', monospace" font-size="10px" font-weight="normal" fill="#bbbbbb" opacity="1"/><text text-anchor="middle" transform="translate(477.02277876601494,15)" font-family="'Droid Sans Mono', 'monospace', monospace" font-size="10px" font-weight="normal" fill="#bbbbbb" opacity="1"/><text text-anchor="middle" transform="translate(481.42857142857144,15)" font-family="'Droid Sans Mono', 'monospace', monospace" font-size="10px" font-weight="normal" fill="#bbbbbb" opacity="1">0.1</text><text text-anchor="middle" transform="translate(510.4134595825033,15)" font-family="'Droid Sans Mono', 'monospace', monospace" font-size="10px" font-weight="normal" fill="#bbbbbb" opacity="1"/><text text-anchor="middle" transform="translate(527.3685322401503,15)" font-family="'Droid Sans Mono', 'monospace', monospace" font-size="10px" font-weight="normal" fill="#bbbbbb" opacity="1"/><text text-anchor="middle" transform="translate(539.3983477364352,15)" font-family="'Droid Sans Mono', 'monospace', monospace" font-size="10px" font-weight="normal" fill="#bbbbbb" opacity="1"/><text text-anchor="middle" transform="translate(548.7293975603538,15)" font-family="'Droid Sans Mono', 'monospace', monospace" font-size="10px" font-weight="normal" fill="#bbbbbb" opacity="1"/><text text-anchor="middle" transform="translate(556.3534203940821,15)" font-family="'Droid Sans Mono', 'monospace', monospace" font-size="10px" font-weight="normal" fill="#bbbbbb" opacity="1"/><text text-anchor="middle" transform="translate(562.7994398528012,15)" font-family="'Droid Sans Mono', 'monospace', monospace" font-size="10px" font-weight="normal" fill="#bbbbbb" opacity="1"/><text text-anchor="middle" transform="translate(568.3832358903671,15)" font-family="'Droid Sans Mono', 'monospace', monospace" font-size="10px" font-weight="normal" fill="#bbbbbb" opacity="1"/><text text-anchor="middle" transform="translate(573.3084930517292,15)" font-family="'Droid Sans Mono', 'monospace', monospace" font-size="10px" font-weight="normal" fill="#bbbbbb" opacity="1"/><text text-anchor="middle" transform="translate(577.7142857142857,15)" font-family="'Droid Sans Mono', 'monospace', monospace" font-size="10px" font-weight="normal" fill="#bbbbbb" opacity="1">1</text><text text-anchor="middle" transform="translate(606.6991738682176,15)" font-family="'Droid Sans Mono', 'monospace', monospace" font-size="10px" font-weight="normal" fill="#bbbbbb" opacity="1"/><text text-anchor="middle" transform="translate(623.6542465258646,15)" font-family="'Droid Sans Mono', 'monospace', monospace" font-size="10px" font-weight="normal" fill="#bbbbbb" opacity="1"/><text text-anchor="middle" transform="translate(635.6840620221494,15)" font-family="'Droid Sans Mono', 'monospace', monospace" font-size="10px" font-weight="normal" fill="#bbbbbb" opacity="1"/><text text-anchor="middle" transform="translate(645.0151118460681,15)" font-family="'Droid Sans Mono', 'monospace', monospace" font-size="10px" font-weight="normal" fill="#bbbbbb" opacity="1"/><text text-anchor="middle" transform="translate(652.6391346797965,15)" font-family="'Droid Sans Mono', 'monospace', monospace" font-size="10px" font-weight="normal" fill="#bbbbbb" opacity="1"/><text text-anchor="middle" transform="translate(659.0851541385156,15)" font-family="'Droid Sans Mono', 'monospace', monospace" font-size="10px" font-weight="normal" fill="#bbbbbb" opacity="1"/><text text-anchor="middle" transform="translate(664.6689501760815,15)" font-family="'Droid Sans Mono', 'monospace', monospace" font-size="10px" font-weight="normal" fill="#bbbbbb" opacity="1"/><text text-anchor="middle" transform="translate(669.5942073374434,15)" font-family="'Droid Sans Mono', 'monospace', monospace" font-size="10px" font-weight="normal" fill="#bbbbbb" opacity="1"/><text text-anchor="end" transform="translate(674,15)" font-family="'Droid Sans Mono', 'monospace', monospace" font-size="10px" font-weight="normal" fill="#bbbbbb" opacity="1">10</text></g><g class="mark-text role-axis-title" pointer-events="none"><text text-anchor="middle" transform="translate(337,41)" font-family="'Droid Sans Mono', 'monospace', monospace" font-size="12px" font-weight="normal" fill="#bbbbbb" opacity="1">lr</text></g></g><path class="foreground" aria-hidden="true" d="" pointer-events="none" display="none"/></g></g><g class="mark-group role-axis" role="graphics-symbol" aria-roledescription="axis" aria-label="Y-axis titled 'losses' for a linear scale with values from 47.8 to 50.0"><g transform="translate(0.5,0.5)"><path class="background" aria-hidden="true" d="M0,0h0v0h0Z" pointer-events="none"/><g><g class="mark-rule role-axis-tick" pointer-events="none"><line transform="translate(0,293)" x2="-5" y2="0" stroke="#bbbbbb" stroke-width="1" opacity="1"/><line transform="translate(0,266)" x2="-5" y2="0" stroke="#bbbbbb" stroke-width="1" opacity="1"/><line transform="translate(0,240)" x2="-5" y2="0" stroke="#bbbbbb" stroke-width="1" opacity="1"/><line transform="translate(0,213)" x2="-5" y2="0" stroke="#bbbbbb" stroke-width="1" opacity="1"/><line transform="translate(0,186)" x2="-5" y2="0" stroke="#bbbbbb" stroke-width="1" opacity="1"/><line transform="translate(0,160)" x2="-5" y2="0" stroke="#bbbbbb" stroke-width="1" opacity="1"/><line transform="translate(0,133)" x2="-5" y2="0" stroke="#bbbbbb" stroke-width="1" opacity="1"/><line transform="translate(0,107)" x2="-5" y2="0" stroke="#bbbbbb" stroke-width="1" opacity="1"/><line transform="translate(0,80)" x2="-5" y2="0" stroke="#bbbbbb" stroke-width="1" opacity="1"/><line transform="translate(0,53)" x2="-5" y2="0" stroke="#bbbbbb" stroke-width="1" opacity="1"/><line transform="translate(0,27)" x2="-5" y2="0" stroke="#bbbbbb" stroke-width="1" opacity="1"/><line transform="translate(0,0)" x2="-5" y2="0" stroke="#bbbbbb" stroke-width="1" opacity="1"/></g><g class="mark-text role-axis-label" pointer-events="none"><text text-anchor="end" transform="translate(-7,296)" font-family="'Droid Sans Mono', 'monospace', monospace" font-size="10px" font-weight="normal" fill="#bbbbbb" opacity="1">47.8</text><text text-anchor="end" transform="translate(-7,269.36363636363603)" font-family="'Droid Sans Mono', 'monospace', monospace" font-size="10px" font-weight="normal" fill="#bbbbbb" opacity="1">48.0</text><text text-anchor="end" transform="translate(-7,242.72727272727207)" font-family="'Droid Sans Mono', 'monospace', monospace" font-size="10px" font-weight="normal" fill="#bbbbbb" opacity="1">48.2</text><text text-anchor="end" transform="translate(-7,216.090909090909)" font-family="'Droid Sans Mono', 'monospace', monospace" font-size="10px" font-weight="normal" fill="#bbbbbb" opacity="1">48.4</text><text text-anchor="end" transform="translate(-7,189.45454545454504)" font-family="'Droid Sans Mono', 'monospace', monospace" font-size="10px" font-weight="normal" fill="#bbbbbb" opacity="1">48.6</text><text text-anchor="end" transform="translate(-7,162.818181818182)" font-family="'Droid Sans Mono', 'monospace', monospace" font-size="10px" font-weight="normal" fill="#bbbbbb" opacity="1">48.8</text><text text-anchor="end" transform="translate(-7,136.181818181818)" font-family="'Droid Sans Mono', 'monospace', monospace" font-size="10px" font-weight="normal" fill="#bbbbbb" opacity="1">49.0</text><text text-anchor="end" transform="translate(-7,109.54545454545402)" font-family="'Droid Sans Mono', 'monospace', monospace" font-size="10px" font-weight="normal" fill="#bbbbbb" opacity="1">49.2</text><text text-anchor="end" transform="translate(-7,82.909090909091)" font-family="'Droid Sans Mono', 'monospace', monospace" font-size="10px" font-weight="normal" fill="#bbbbbb" opacity="1">49.4</text><text text-anchor="end" transform="translate(-7,56.27272727272703)" font-family="'Droid Sans Mono', 'monospace', monospace" font-size="10px" font-weight="normal" fill="#bbbbbb" opacity="1">49.6</text><text text-anchor="end" transform="translate(-7,29.63636363636397)" font-family="'Droid Sans Mono', 'monospace', monospace" font-size="10px" font-weight="normal" fill="#bbbbbb" opacity="1">49.8</text><text text-anchor="end" transform="translate(-7,3)" font-family="'Droid Sans Mono', 'monospace', monospace" font-size="10px" font-weight="normal" fill="#bbbbbb" opacity="1">50.0</text></g><g class="mark-text role-axis-title" pointer-events="none"><text text-anchor="middle" transform="translate(-41.462890625,146.5) rotate(-90) translate(0,-3)" font-family="'Droid Sans Mono', 'monospace', monospace" font-size="12px" font-weight="normal" fill="#bbbbbb" opacity="1">losses</text></g></g><path class="foreground" aria-hidden="true" d="" pointer-events="none" display="none"/></g></g><g class="mark-group role-scope layer_0_pathgroup" role="graphics-object" aria-roledescription="group mark container"><g transform="translate(0,0)"><path class="background" aria-hidden="true" d="M0,0h674v293h-674Z"/><g><g class="mark-line role-mark layer_0_marks" clip-path="url(#clip4)" role="graphics-object" aria-roledescription="line mark container"><path aria-label="lr: 0.00000100000000003; losses: 49.4676373804; rev: beefy-bort" role="graphics-symbol" aria-roledescription="line mark" d="M0,70.901L3.585,70.901L7.17,70.901L10.755,70.901L14.34,70.901L17.926,122.321L21.511,146.103L25.096,146.103L28.681,146.103L32.266,151.306L35.851,154.298L39.436,147.023L43.021,146.337L46.606,145.094L50.191,145.093L53.777,143.897L57.362,143.218L60.947,144.234L64.532,145.342L68.117,145.884L71.702,146.415L75.287,148.756L78.872,151.987L82.457,156.239L86.043,160.089L89.628,163.638L93.213,167.055L96.798,170.033L100.383,172.122L103.968,177.051L107.553,181.208L111.138,179.512L114.723,180.287L118.309,181.794L121.894,178.1L125.479,174.495L129.064,172.72L132.649,171.979L136.234,171.933L139.819,171.399L143.404,171.731L146.989,172.3L150.574,173.628L154.16,174.959L157.745,175.426L161.33,175.851L164.915,175.422L168.5,173.54L172.085,171.563L175.67,169.098L179.255,166.87L182.84,164.974L186.426,163.754L190.011,164.36L193.596,166.121L197.181,167.859L200.766,169.356L204.351,170.235L207.936,171.619L211.521,172.817L215.106,174.199L218.691,175.227L222.277,176.513L225.862,177.692L229.447,178.592L233.032,179.04L236.617,179.457L240.202,180.177L243.787,181.205L247.372,182.251L250.957,183.627L254.543,184.535L258.128,184.875L261.713,184.91L265.298,184.963L268.883,185.304L272.468,185.39L276.053,186.166L279.638,186.985L283.223,188.134L286.809,189.127L290.394,190.011L293.979,191.102L297.564,192.472L301.149,191.992L304.734,191.8L308.319,191.896L311.904,192.241L315.489,192.918L319.074,193.789L322.66,194.282L326.245,194.491L329.83,195.336L333.415,196.346L337,197.35L340.585,198.036L344.17,199.321L347.755,201.285L351.34,202.979L354.926,204.257L358.511,204.616L362.096,205.047L365.681,205.626L369.266,206.214L372.851,207.237L376.436,208.485L380.021,210.518L383.606,211.901L387.191,213.426L390.777,214.19L394.362,214.358L397.947,214.642L401.532,215.346L405.117,217.495L408.702,219.924L412.287,222.003L415.872,223.609L419.457,224.91L423.043,226.819L426.628,228.48L430.213,230.036L433.798,230.2L437.383,230.482L440.968,231.284L444.553,232.475L448.138,233.567L451.723,234.732L455.309,236.569L458.894,238.573L462.479,240.23L466.064,241.448L469.649,242.48L473.234,243.398L476.819,243.971L480.404,244.822L483.989,246.478L487.574,248.186L491.16,250.049L494.745,251.705L498.33,253.516L501.915,254.886L505.5,256.23L509.085,257.246L512.67,258.148L516.255,258.805L519.84,259.474L523.426,259.82L527.011,260.27L530.596,261.03L534.181,261.99L537.766,262.831L541.351,263.651L544.936,264.51L548.521,265.1L552.106,265.129L555.691,265.191L559.277,265.905L562.862,266.996L566.447,267.884L570.032,268.743L573.617,270.112L577.202,271.526L580.787,272.695L584.372,273.408L587.957,274.044L591.543,274.97L595.128,276.142L598.713,277.621L602.298,278.898L605.883,279.871L609.468,279.978L613.053,279.709L616.638,279.358L620.223,278.807L623.809,278.672L627.394,278.471L630.979,279.246L634.564,280.055L638.149,280.823L641.734,280.572L645.319,280.322L648.904,280.532L652.489,281.1L656.074,281.433L659.66,281.646L663.245,281.678L666.83,201.93L670.415,145.232" stroke="#13adc7" stroke-width="2"/></g></g><path class="foreground" aria-hidden="true" d="" display="none"/></g></g><g class="mark-group role-scope layer_1_pathgroup" role="graphics-object" aria-roledescription="group mark container"><g transform="translate(0,0)"><path class="background" aria-hidden="true" d="M0,0h674v293h-674Z"/><g><g class="mark-line role-mark layer_1_marks" clip-path="url(#clip5)" role="graphics-object" aria-roledescription="line mark container"><path aria-label="lr: 0.000001; losses: 49.4085235596; rev: beefy-bort" role="graphics-symbol" aria-roledescription="line mark" d="M0,78.774L3.585,22.803L7.17,70.901L10.755,110.204L14.34,121.058L17.926,114.476L21.511,134.795L25.096,146.103L28.681,163.326L32.266,164.546L35.851,154.275L39.436,147.023L43.021,138.952L46.606,145.093L50.191,148.751L53.777,140.971L57.362,143.218L60.947,150.291L64.532,145.342L68.117,142.018L71.702,146.476L75.287,146.536L78.872,151.815L82.457,156.935L86.043,160.271L89.628,163.477L93.213,167.548L96.798,170.35L100.383,171.992L103.968,183.281L107.553,181.991L111.138,179.192L114.723,178.12L118.309,181.945L121.894,181.101L125.479,174.083L129.064,171.711L132.649,172.603L136.234,170.863L139.819,173.268L143.404,170.613L146.989,172.271L150.574,173.993L154.16,174.613L157.745,177.598L161.33,175.848L164.915,175.406L168.5,175.012L172.085,169.691L175.67,169.295L179.255,167.147L182.84,163.72L186.426,163.529L190.011,163.735L193.596,165.962L197.181,168.847L200.766,169.026L204.351,170.684L207.936,170.858L211.521,173.659L215.106,173.851L218.691,175.493L222.277,176.3L225.862,177.96L229.447,178.821L233.032,179.064L236.617,179.295L240.202,180.089L243.787,181.216L247.372,185.782L250.957,183.39L254.543,185.952L258.128,184.537L261.713,184.705L265.298,185.541L268.883,184.441L272.468,186.155L276.053,185.149L279.638,187.354L283.223,188.165L286.809,189.026L290.394,190.304L293.979,190.693L297.564,192.527L301.149,195.227L304.734,191.553L308.319,192.156L311.904,191.837L315.489,192.877L319.074,194.05L322.66,194.458L326.245,194.376L329.83,194.718L333.415,197.123L337,197.146L340.585,198.085L344.17,198.887L347.755,201.189L351.34,203.965L354.926,204.063L358.511,205.162L362.096,204.493L365.681,205.706L369.266,206.614L372.851,206.154L376.436,208.921L380.021,210.056L383.606,213.142L387.191,212.837L390.777,215.062L394.362,214.61L397.947,213.151L401.532,215.53L405.117,216.797L408.702,220.519L412.287,222.422L415.872,223.225L419.457,225.495L423.043,225.829L426.628,229.528L430.213,230.081L433.798,230.788L437.383,229.492L440.968,231.186L444.553,233.115L448.138,233.141L451.723,234.754L455.309,236.332L458.894,238.857L462.479,240.602L466.064,241.351L469.649,242.579L473.234,243.559L476.819,244.113L480.404,244.263L483.989,246.252L487.574,249.127L491.16,249.288L494.745,252.234L498.33,253.475L501.915,255.094L505.5,256.148L509.085,257.621L512.67,257.972L516.255,259.039L519.84,259.375L523.426,260.131L527.011,259.889L530.596,260.953L534.181,262.281L537.766,262.755L541.351,263.595L544.936,264.678L548.521,265.287L552.106,265.365L555.691,264.687L559.277,265.637L562.862,267.462L566.447,267.879L570.032,268.466L573.617,270.017L577.202,271.967L580.787,272.638L584.372,273.671L587.957,273.902L591.543,274.695L595.128,276.441L598.713,277.282L602.298,279.417L605.883,279.976L609.468,280.354L613.053,279.543L616.638,279.308L620.223,279.182L623.809,277.688L627.394,279.223L630.979,277.614L634.564,280.318L638.149,281.524L641.734,280.636L645.319,279.608L648.904,280.732L652.489,281.08L656.074,281.579L659.66,281.626L663.245,279.044L666.83,266.884L670.415,95.128" stroke="#13adc7" stroke-width="2" opacity="0.2"/></g></g><path class="foreground" aria-hidden="true" d="" display="none"/></g></g><g class="mark-symbol role-mark layer_2_marks" clip-path="url(#clip6)" role="graphics-object" aria-roledescription="symbol mark container" pointer-events="none"><path aria-label="lr: 9.17837837715; losses: 49.2857257666; rev: beefy-bort" role="graphics-symbol" aria-roledescription="circle" transform="translate(670.4148936170204,95.12834109061285)" d="M1.581,0A1.581,1.581,0,1,1,-1.581,0A1.581,1.581,0,1,1,1.581,0" fill="#13adc7" stroke-width="2"/></g><g class="mark-group role-legend" role="graphics-symbol" aria-roledescription="legend" aria-label="Symbol legend titled 'rev' for fill color and stroke color with 1 value: beefy-bort"><g transform="translate(692,0)"><path class="background" aria-hidden="true" d="M0,0h62v30h-62Z" pointer-events="none"/><g><g class="mark-group role-legend-entry"><g transform="translate(0,17)"><path class="background" aria-hidden="true" d="M0,0h0v0h0Z" pointer-events="none"/><g><g class="mark-group role-scope" role="graphics-object" aria-roledescription="group mark container"><g transform="translate(0,0)"><path class="background" aria-hidden="true" d="M0,0h61.0244140625v12.5h-61.0244140625Z" pointer-events="none" opacity="1"/><g><g class="mark-symbol role-legend-symbol" pointer-events="none"><path transform="translate(6,6)" d="M5,0A5,5,0,1,1,-5,0A5,5,0,1,1,5,0" fill="#13adc7" stroke="#13adc7" stroke-width="1.5" opacity="0.2"/></g><g class="mark-text role-legend-label" pointer-events="none"><text text-anchor="start" transform="translate(16,9)" font-family="'Droid Sans Mono', 'monospace', monospace" font-size="10px" font-weight="normal" fill="#bbbbbb" opacity="1">beefy-bort</text></g></g><path class="foreground" aria-hidden="true" d="" pointer-events="none" display="none"/></g></g></g><path class="foreground" aria-hidden="true" d="" pointer-events="none" display="none"/></g></g><g class="mark-text role-legend-title" pointer-events="none"><text text-anchor="start" transform="translate(0,9)" font-family="'Droid Sans Mono', 'monospace', monospace" font-size="12px" font-weight="normal" fill="#bbbbbb" opacity="1">rev</text></g></g><path class="foreground" aria-hidden="true" d="" pointer-events="none" display="none"/></g></g><g class="mark-group role-title"><g transform="translate(337,-21)"><path class="background" aria-hidden="true" d="M0,0h0v0h0Z" pointer-events="none"/><g><g class="mark-text role-title-text" role="graphics-symbol" aria-roledescription="title" aria-label="Title text 'lr_vs_losses'" pointer-events="none"><text text-anchor="middle" transform="translate(0,9)" font-family="'Droid Sans Mono', 'monospace', monospace" font-size="12px" font-weight="normal" fill="#bbbbbb" opacity="1">lr_vs_losses</text></g></g><path class="foreground" aria-hidden="true" d="" pointer-events="none" display="none"/></g></g></g><path class="foreground" aria-hidden="true" d="" display="none"/></g></g></g><defs><clipPath id="clip4"><rect x="0" y="0" width="674" height="293"/></clipPath><clipPath id="clip5"><rect x="0" y="0" width="674" height="293"/></clipPath><clipPath id="clip6"><rect x="0" y="0" width="674" height="293"/></clipPath></defs></svg>